999
dxfrw 0.6.3
  0
SECTION
  2
HEADER
  9
$ACADVER
  1
AC1021
  9
$DWGCODEPAGE
  3
ANSI_1252
  9
$INSBASE
 10
0
 20
0
 30
0
  9
$EXTMIN
 10
-2.479367406875472
 20
-140.3341793497497
 30
0
  9
$EXTMAX
 10
290
 20
293.0199753946343
 30
0
  9
$LIMMIN
 10
0
 20
0
  9
$LIMMAX
 10
420
 20
297
  9
$ORTHOMODE
 70
    0
  9
$REGENMODE
 70
    1
  9
$FILLMODE
 70
    1
  9
$QTEXTMODE
 70
    0
  9
$MIRRTEXT
 70
    0
  9
$LTSCALE
 40
1
  9
$ATTMODE
 70
    0
  9
$TEXTSIZE
 40
2.5
  9
$TRACEWID
 40
15.68
  9
$TEXTSTYLE
  7
STANDARD
  9
$CLAYER
  8
0
  9
$CELTYPE
  6
BYLAYER
  9
$CECOLOR
 62
  256
  9
$CELTSCALE
 40
1
  9
$DISPSILH
 70
    0
  9
$DIMSCALE
 40
2.5
  9
$DIMASZ
 40
2.5
  9
$DIMEXO
 40
0.625
  9
$DIMDLI
 40
3.75
  9
$DIMRND
 40
0
  9
$DIMDLE
 40
0
  9
$DIMEXE
 40
1.25
  9
$DIMTP
 40
0
  9
$DIMTM
 40
0
  9
$DIMTXT
 40
2.5
  9
$DIMCEN
 40
2.5
  9
$DIMTSZ
 40
0
  9
$DIMTOL
 70
    0
  9
$DIMLIM
 70
    0
  9
$DIMTIH
 70
    0
  9
$DIMTOH
 70
    0
  9
$DIMSE1
 70
    0
  9
$DIMSE2
 70
    0
  9
$DIMTAD
 70
    1
  9
$DIMZIN
 70
    8
  9
$DIMBLK
  1

  9
$DIMASO
 70
    1
  9
$DIMSHO
 70
    1
  9
$DIMPOST
  1

  9
$DIMAPOST
  1

  9
$DIMALT
 70
    0
  9
$DIMALTD
 70
    3
  9
$DIMALTF
 40
0.03937
  9
$DIMLFAC
 40
1
  9
$DIMTOFL
 70
    1
  9
$DIMTVP
 40
0
  9
$DIMTIX
 70
    0
  9
$DIMSOXD
 70
    0
  9
$DIMSAH
 70
    0
  9
$DIMBLK1
  1

  9
$DIMBLK2
  1

  9
$DIMSTYLE
  2
STANDARD
  9
$DIMCLRD
 70
    0
  9
$DIMCLRE
 70
    0
  9
$DIMCLRT
 70
    0
  9
$DIMTFAC
 40
1
  9
$DIMGAP
 40
0.625
  9
$DIMJUST
 70
    0
  9
$DIMSD1
 70
    0
  9
$DIMSD2
 70
    0
  9
$DIMTOLJ
 70
    0
  9
$DIMTZIN
 70
    8
  9
$DIMALTZ
 70
    0
  9
$DIMALTTZ
 70
    0
  9
$DIMUPT
 70
    0
  9
$DIMDEC
 70
    2
  9
$DIMTDEC
 70
    2
  9
$DIMALTU
 70
    2
  9
$DIMALTTD
 70
    3
  9
$DIMTXSTY
  7
STANDARD
  9
$DIMAUNIT
 70
    0
  9
$DIMADEC
 70
    0
  9
$DIMALTRND
 40
0
  9
$DIMAZIN
 70
    0
  9
$DIMDSEP
 70
   44
  9
$DIMATFIT
 70
    3
  9
$DIMFRAC
 70
    0
  9
$DIMLDRBLK
  1
STANDARD
  9
$DIMLUNIT
 70
    2
  9
$DIMLWD
 70
   -2
  9
$DIMLWE
 70
   -2
  9
$DIMTMOVE
 70
    0
  9
$DIMFXL
 40
1
  9
$DIMFXLON
 70
    0
  9
$DIMJOGANG
 40
0.7854
  9
$DIMTFILL
 70
    0
  9
$DIMTFILLCLR
 70
    0
  9
$DIMARCSYM
 70
    0
  9
$DIMLTYPE
  6

  9
$DIMLTEX1
  6

  9
$DIMLTEX2
  6

  9
$LUNITS
 70
    2
  9
$LUPREC
 70
    4
  9
$SKETCHINC
 40
1
  9
$FILLETRAD
 40
0
  9
$AUNITS
 70
    0
  9
$AUPREC
 70
    2
  9
$MENU
  1
.
  9
$ELEVATION
 40
0
  9
$PELEVATION
 40
0
  9
$THICKNESS
 40
0
  9
$LIMCHECK
 70
    0
  9
$CHAMFERA
 40
0
  9
$CHAMFERB
 40
0
  9
$CHAMFERC
 40
0
  9
$CHAMFERD
 40
0
  9
$SKPOLY
 70
    0
  9
$USRTIMER
 70
    1
  9
$ANGBASE
 50
0
  9
$ANGDIR
 70
    0
  9
$PDMODE
 70
   34
  9
$PDSIZE
 40
0
  9
$PLINEWID
 40
0
  9
$SPLFRAME
 70
    0
  9
$SPLINETYPE
 70
    2
  9
$SPLINESEGS
 70
    8
  9
$HANDSEED
  5
20000
  9
$SURFTAB1
 70
    6
  9
$SURFTAB2
 70
    6
  9
$SURFTYPE
 70
    6
  9
$SURFU
 70
    6
  9
$SURFV
 70
    6
  9
$UCSBASE
  2

  9
$UCSNAME
  2

  9
$UCSORG
 10
0
 20
0
 30
0
  9
$UCSXDIR
 10
1
 20
0
 30
0
  9
$UCSYDIR
 10
0
 20
1
 30
0
  9
$UCSORTHOREF
  2

  9
$UCSORTHOVIEW
 70
    0
  9
$UCSORGTOP
 10
0
 20
0
 30
0
  9
$UCSORGBOTTOM
 10
0
 20
0
 30
0
  9
$UCSORGLEFT
 10
0
 20
0
 30
0
  9
$UCSORGRIGHT
 10
0
 20
0
 30
0
  9
$UCSORGFRONT
 10
0
 20
0
 30
0
  9
$UCSORGBACK
 10
0
 20
0
 30
0
  9
$PUCSBASE
  2

  9
$PUCSNAME
  2

  9
$PUCSORG
 10
0
 20
0
 30
0
  9
$PUCSXDIR
 10
1
 20
0
 30
0
  9
$PUCSYDIR
 10
0
 20
1
 30
0
  9
$PUCSORTHOREF
  2

  9
$PUCSORTHOVIEW
 70
    0
  9
$PUCSORGTOP
 10
0
 20
0
 30
0
  9
$PUCSORGBOTTOM
 10
0
 20
0
 30
0
  9
$PUCSORGLEFT
 10
0
 20
0
 30
0
  9
$PUCSORGRIGHT
 10
0
 20
0
 30
0
  9
$PUCSORGFRONT
 10
0
 20
0
 30
0
  9
$PUCSORGBACK
 10
0
 20
0
 30
0
  9
$USERI1
 70
    0
  9
$USERI2
 70
    0
  9
$USERI3
 70
    0
  9
$USERI4
 70
    0
  9
$USERI5
 70
    0
  9
$USERR1
 40
0
  9
$USERR2
 40
0
  9
$USERR3
 40
0
  9
$USERR4
 40
0
  9
$USERR5
 40
0
  9
$WORLDVIEW
 70
    1
  9
$SHADEDGE
 70
    3
  9
$SHADEDIF
 70
   70
  9
$TILEMODE
 70
    1
  9
$MAXACTVP
 70
   64
  9
$PINSBASE
 10
0
 20
0
 30
0
  9
$PLIMCHECK
 70
    0
  9
$PEXTMIN
 10
0
 20
0
 30
0
  9
$PEXTMAX
 10
0
 20
0
 30
0
  9
$GRIDMODE
 70
    1
  9
$SNAPSTYLE
 70
    0
  9
$PLIMMIN
 10
0
 20
0
  9
$PLIMMAX
 10
594
 20
420
  9
$UNITMODE
 70
    0
  9
$VISRETAIN
 70
    1
  9
$PLINEGEN
 70
    0
  9
$PSLTSCALE
 70
    1
  9
$TREEDEPTH
 70
 3020
  9
$CMLSTYLE
  2
Standard
  9
$CMLJUST
 70
    0
  9
$CMLSCALE
 40
20
  9
$PROXYGRAPHICS
 70
    1
  9
$MEASUREMENT
 70
    1
  9
$CELWEIGHT
370
   -1
  9
$ENDCAPS
280
    0
  9
$JOINSTYLE
280
    0
  9
$LWDISPLAY
290
    0
  9
$INSUNITS
 70
    4
  9
$HYPERLINKBASE
  1

  9
$STYLESHEET
  1

  9
$XEDIT
290
    1
  9
$CEPSNTYPE
380
    0
  9
$PSTYLEMODE
290
    1
  9
$EXTNAMES
290
    1
  9
$PSVPSCALE
 40
1
  9
$OLESTARTUP
290
    0
  9
$SORTENTS
280
  127
  9
$INDEXCTL
280
    0
  9
$HIDETEXT
280
    1
  9
$XCLIPFRAME
290
    0
  9
$HALOGAP
280
    0
  9
$OBSCOLOR
 70
  257
  9
$OBSLTYPE
280
    0
  9
$INTERSECTIONDISPLAY
280
    0
  9
$INTERSECTIONCOLOR
 70
  257
  9
$DIMASSOC
280
    1
  9
$PROJECTNAME
  1

  9
$CAMERADISPLAY
290
    0
  9
$LENSLENGTH
 40
50
  9
$CAMERAHEIGHT
 40
0
  9
$STEPSPERSEC
 40
2
  9
$STEPSIZE
 40
50
  9
$3DDWFPREC
 40
2
  9
$PSOLWIDTH
 40
5
  9
$PSOLHEIGHT
 40
80
  9
$LOFTANG1
 40
1.570796326794897
  9
$LOFTANG2
 40
1.570796326794897
  9
$LOFTMAG1
 40
0
  9
$LOFTMAG2
 40
0
  9
$LOFTPARAM
 70
    7
  9
$LOFTNORMALS
280
    1
  9
$LATITUDE
 40
1
  9
$LONGITUDE
 40
1
  9
$NORTHDIRECTION
 40
0
  9
$TIMEZONE
 70
-8000
  9
$LIGHTGLYPHDISPLAY
280
    1
  9
$TILEMODELIGHTSYNCH
280
    1
  9
$SOLIDHIST
280
    1
  9
$SHOWHIST
280
    1
  9
$DWFFRAME
280
    2
  9
$DGNFRAME
280
    0
  9
$REALWORLDSCALE
290
    1
  9
$INTERFERECOLOR
 62
    1
  9
$CSHADOW
280
    0
  9
$SHADOWPLANELOCATION
 40
0
  0
ENDSEC
  0
SECTION
  2
CLASSES
  0
ENDSEC
  0
SECTION
  2
TABLES
  0
TABLE
  2
VPORT
  5
8
330
0
100
AcDbSymbolTable
 70
    1
  0
VPORT
  5
31
330
2
100
AcDbSymbolTableRecord
100
AcDbViewportTableRecord
  2
*ACTIVE
 70
    0
 10
0
 20
0
 11
1
 21
1
 12
304.7950953485802
 22
193.4209425236122
 13
0
 23
0
 14
10
 24
10
 15
10
 25
10
 16
0
 26
0
 36
1
 17
0
 27
0
 37
0
 40
614.4780845515478
 41
1.802272727272727
 42
50
 43
0
 44
0
 50
0
 51
0
 71
    0
 72
  100
 73
    1
 74
    3
 75
    0
 76
    1
 77
    0
 78
    0
281
    0
 65
    1
110
0
120
0
130
0
111
1
121
0
131
0
112
0
122
1
132
0
 79
    0
146
0
348
10020
 60
    7
 61
    5
292
1
282
    1
141
0
142
0
 63
  250
421
3358443
  0
ENDTAB
  0
TABLE
  2
LTYPE
  5
5
330
0
100
AcDbSymbolTable
 70
    4
  0
LTYPE
  5
14
330
5
100
AcDbSymbolTableRecord
100
AcDbLinetypeTableRecord
  2
ByBlock
 70
    0
  3

 72
   65
 73
    0
 40
0
  0
LTYPE
  5
15
330
5
100
AcDbSymbolTableRecord
100
AcDbLinetypeTableRecord
  2
ByLayer
 70
    0
  3

 72
   65
 73
    0
 40
0
  0
LTYPE
  5
16
330
5
100
AcDbSymbolTableRecord
100
AcDbLinetypeTableRecord
  2
Continuous
 70
    0
  3
Solid line
 72
   65
 73
    0
 40
0
  0
LTYPE
  5
32
330
5
100
AcDbSymbolTableRecord
100
AcDbLinetypeTableRecord
  2
DOT
 70
    0
  3
Dot . . . . . . . . . . . . . . . . . . . . . .
 72
   65
 73
    2
 40
6.35
 49
0
 74
    0
 49
-6.35
 74
    0
  0
LTYPE
  5
33
330
5
100
AcDbSymbolTableRecord
100
AcDbLinetypeTableRecord
  2
DOTTINY
 70
    0
  3
Dot (.15x) .....................................
 72
   65
 73
    2
 40
0.9525
 49
0
 74
    0
 49
-0.9525
 74
    0
  0
LTYPE
  5
34
330
5
100
AcDbSymbolTableRecord
100
AcDbLinetypeTableRecord
  2
DOT2
 70
    0
  3
Dot (.5x) .....................................
 72
   65
 73
    2
 40
3.175
 49
0
 74
    0
 49
-3.175
 74
    0
  0
LTYPE
  5
35
330
5
100
AcDbSymbolTableRecord
100
AcDbLinetypeTableRecord
  2
DOTX2
 70
    0
  3
Dot (2x) .  .  .  .  .  .  .  .  .  .  .  .  .
 72
   65
 73
    2
 40
12.7
 49
0
 74
    0
 49
-12.7
 74
    0
  0
LTYPE
  5
36
330
5
100
AcDbSymbolTableRecord
100
AcDbLinetypeTableRecord
  2
DASHED
 70
    0
  3
Dashed _ _ _ _ _ _ _ _ _ _ _ _ _ _ _ _ _
 72
   65
 73
    2
 40
19.05
 49
12.7
 74
    0
 49
-6.35
 74
    0
  0
LTYPE
  5
37
330
5
100
AcDbSymbolTableRecord
100
AcDbLinetypeTableRecord
  2
DASHEDTINY
 70
    0
  3
Dashed (.15x) _ _ _ _ _ _ _ _ _ _ _ _ _ _ _ _ _
 72
   65
 73
    2
 40
2.8575
 49
1.905
 74
    0
 49
-0.9525
 74
    0
  0
LTYPE
  5
38
330
5
100
AcDbSymbolTableRecord
100
AcDbLinetypeTableRecord
  2
DASHED2
 70
    0
  3
Dashed (.5x) _ _ _ _ _ _ _ _ _ _ _ _ _ _ _ _ _
 72
   65
 73
    2
 40
9.524999999999999
 49
6.35
 74
    0
 49
-3.175
 74
    0
  0
LTYPE
  5
39
330
5
100
AcDbSymbolTableRecord
100
AcDbLinetypeTableRecord
  2
DASHEDX2
 70
    0
  3
Dashed (2x) ____  ____  ____  ____  ____  ___
 72
   65
 73
    2
 40
38.09999999999999
 49
25.4
 74
    0
 49
-12.7
 74
    0
  0
LTYPE
  5
3A
330
5
100
AcDbSymbolTableRecord
100
AcDbLinetypeTableRecord
  2
DASHDOT
 70
    0
  3
Dash dot __ . __ . __ . __ . __ . __ . __ . __
 72
   65
 73
    4
 40
25.4
 49
12.7
 74
    0
 49
-6.35
 74
    0
 49
0
 74
    0
 49
-6.35
 74
    0
  0
LTYPE
  5
3B
330
5
100
AcDbSymbolTableRecord
100
AcDbLinetypeTableRecord
  2
DASHDOTTINY
 70
    0
  3
Dash dot (.15x) _._._._._._._._._._._._._._._.
 72
   65
 73
    4
 40
3.81
 49
1.905
 74
    0
 49
-0.9525
 74
    0
 49
0
 74
    0
 49
-0.9525
 74
    0
  0
LTYPE
  5
3C
330
5
100
AcDbSymbolTableRecord
100
AcDbLinetypeTableRecord
  2
DASHDOT2
 70
    0
  3
Dash dot (.5x) _._._._._._._._._._._._._._._.
 72
   65
 73
    4
 40
12.7
 49
6.35
 74
    0
 49
-3.175
 74
    0
 49
0
 74
    0
 49
-3.175
 74
    0
  0
LTYPE
  5
3D
330
5
100
AcDbSymbolTableRecord
100
AcDbLinetypeTableRecord
  2
DASHDOTX2
 70
    0
  3
Dash dot (2x) ____  .  ____  .  ____  .  ___
 72
   65
 73
    4
 40
50.8
 49
25.4
 74
    0
 49
-12.7
 74
    0
 49
0
 74
    0
 49
-12.7
 74
    0
  0
LTYPE
  5
3E
330
5
100
AcDbSymbolTableRecord
100
AcDbLinetypeTableRecord
  2
DIVIDE
 70
    0
  3
Divide ____ . . ____ . . ____ . . ____ . . ____
 72
   65
 73
    6
 40
31.75
 49
12.7
 74
    0
 49
-6.35
 74
    0
 49
0
 74
    0
 49
-6.35
 74
    0
 49
0
 74
    0
 49
-6.35
 74
    0
  0
LTYPE
  5
3F
330
5
100
AcDbSymbolTableRecord
100
AcDbLinetypeTableRecord
  2
DIVIDETINY
 70
    0
  3
Divide (.15x) __..__..__..__..__..__..__..__.._
 72
   65
 73
    6
 40
4.7625
 49
1.905
 74
    0
 49
-0.9525
 74
    0
 49
0
 74
    0
 49
-0.9525
 74
    0
 49
0
 74
    0
 49
-0.9525
 74
    0
  0
LTYPE
  5
40
330
5
100
AcDbSymbolTableRecord
100
AcDbLinetypeTableRecord
  2
DIVIDE2
 70
    0
  3
Divide (.5x) __..__..__..__..__..__..__..__.._
 72
   65
 73
    6
 40
15.875
 49
6.35
 74
    0
 49
-3.175
 74
    0
 49
0
 74
    0
 49
-3.175
 74
    0
 49
0
 74
    0
 49
-3.175
 74
    0
  0
LTYPE
  5
41
330
5
100
AcDbSymbolTableRecord
100
AcDbLinetypeTableRecord
  2
DIVIDEX2
 70
    0
  3
Divide (2x) ________  .  .  ________  .  .  _
 72
   65
 73
    6
 40
63.5
 49
25.4
 74
    0
 49
-12.7
 74
    0
 49
0
 74
    0
 49
-12.7
 74
    0
 49
0
 74
    0
 49
-12.7
 74
    0
  0
LTYPE
  5
42
330
5
100
AcDbSymbolTableRecord
100
AcDbLinetypeTableRecord
  2
BORDER
 70
    0
  3
Border __ __ . __ __ . __ __ . __ __ . __ __ .
 72
   65
 73
    6
 40
44.45
 49
12.7
 74
    0
 49
-6.35
 74
    0
 49
12.7
 74
    0
 49
-6.35
 74
    0
 49
0
 74
    0
 49
-6.35
 74
    0
  0
LTYPE
  5
43
330
5
100
AcDbSymbolTableRecord
100
AcDbLinetypeTableRecord
  2
BORDERTINY
 70
    0
  3
Border (.15x) __.__.__.__.__.__.__.__.__.__.__.
 72
   65
 73
    6
 40
6.6675
 49
1.905
 74
    0
 49
-0.9525
 74
    0
 49
1.905
 74
    0
 49
-0.9525
 74
    0
 49
0
 74
    0
 49
-0.9525
 74
    0
  0
LTYPE
  5
44
330
5
100
AcDbSymbolTableRecord
100
AcDbLinetypeTableRecord
  2
BORDER2
 70
    0
  3
Border (.5x) __.__.__.__.__.__.__.__.__.__.__.
 72
   65
 73
    6
 40
22.225
 49
6.35
 74
    0
 49
-3.175
 74
    0
 49
6.35
 74
    0
 49
-3.175
 74
    0
 49
0
 74
    0
 49
-3.175
 74
    0
  0
LTYPE
  5
45
330
5
100
AcDbSymbolTableRecord
100
AcDbLinetypeTableRecord
  2
BORDERX2
 70
    0
  3
Border (2x) ____  ____  .  ____  ____  .  ___
 72
   65
 73
    6
 40
88.89999999999999
 49
25.4
 74
    0
 49
-12.7
 74
    0
 49
25.4
 74
    0
 49
-12.7
 74
    0
 49
0
 74
    0
 49
-12.7
 74
    0
  0
LTYPE
  5
46
330
5
100
AcDbSymbolTableRecord
100
AcDbLinetypeTableRecord
  2
CENTER
 70
    0
  3
Center ____ _ ____ _ ____ _ ____ _ ____ _ ____
 72
   65
 73
    4
 40
50.8
 49
31.75
 74
    0
 49
-6.35
 74
    0
 49
6.35
 74
    0
 49
-6.35
 74
    0
  0
LTYPE
  5
47
330
5
100
AcDbSymbolTableRecord
100
AcDbLinetypeTableRecord
  2
CENTERTINY
 70
    0
  3
Center (.15x) ___ _ ___ _ ___ _ ___ _ ___ _ ___
 72
   65
 73
    4
 40
7.62
 49
4.7625
 74
    0
 49
-0.9525
 74
    0
 49
0.9525
 74
    0
 49
-0.9525
 74
    0
  0
LTYPE
  5
48
330
5
100
AcDbSymbolTableRecord
100
AcDbLinetypeTableRecord
  2
CENTER2
 70
    0
  3
Center (.5x) ___ _ ___ _ ___ _ ___ _ ___ _ ___
 72
   65
 73
    4
 40
28.575
 49
19.05
 74
    0
 49
-3.175
 74
    0
 49
3.175
 74
    0
 49
-3.175
 74
    0
  0
LTYPE
  5
49
330
5
100
AcDbSymbolTableRecord
100
AcDbLinetypeTableRecord
  2
CENTERX2
 70
    0
  3
Center (2x) ________  __  ________  __  _____
 72
   65
 73
    4
 40
101.6
 49
63.5
 74
    0
 49
-12.7
 74
    0
 49
12.7
 74
    0
 49
-12.7
 74
    0
  0
ENDTAB
  0
TABLE
  2
LAYER
  5
2
330
0
100
AcDbSymbolTable
 70
    1
  0
LAYER
  5
10
330
2
100
AcDbSymbolTableRecord
100
AcDbLayerTableRecord
  2
0
 70
    0
 62
    7
  6
CONTINUOUS
370
    0
390
F
  0
ENDTAB
  0
TABLE
  2
STYLE
  5
3
330
0
100
AcDbSymbolTable
 70
    3
  0
STYLE
  5
4A
330
2
100
AcDbSymbolTableRecord
100
AcDbTextStyleTableRecord
  2
Standard
 70
    0
 40
0
 41
1
 50
0
 71
    0
 42
1
  3
txt
  4

  0
ENDTAB
  0
TABLE
  2
VIEW
  5
6
330
0
100
AcDbSymbolTable
 70
    0
  0
ENDTAB
  0
TABLE
  2
UCS
  5
7
330
0
100
AcDbSymbolTable
 70
    0
  0
ENDTAB
  0
TABLE
  2
APPID
  5
9
330
0
100
AcDbSymbolTable
 70
    1
  0
APPID
  5
12
330
9
100
AcDbSymbolTableRecord
100
AcDbRegAppTableRecord
  2
ACAD
 70
    0
  0
APPID
  5
4B
330
9
100
AcDbSymbolTableRecord
100
AcDbRegAppTableRecord
  2
LibreCad
 70
    0
  0
ENDTAB
  0
TABLE
  2
DIMSTYLE
  5
A
330
0
100
AcDbSymbolTable
 70
    1
100
AcDbDimStyleTable
 71
    1
  0
DIMSTYLE
105
4C
330
A
100
AcDbSymbolTableRecord
100
AcDbDimStyleTableRecord
  2
Standard
 70
    0
 40
2.5
 41
2.5
 42
0.625
 43
0.38
 44
1.25
 45
0
 46
0
 47
0
 48
0
 49
1
140
2.5
141
0.09
142
0
143
25.4
144
1
145
0
146
1
147
0.625
148
0
 71
    0
 72
    0
 73
    0
 74
    1
 75
    0
 76
    0
 77
    0
 78
    8
 79
    0
170
    0
171
    2
172
    0
173
    0
174
    0
175
    0
176
    0
177
    0
178
    0
179
    0
271
    2
272
    4
273
    2
274
    2
275
    0
276
    0
277
    2
278
   44
279
    0
280
    0
281
    0
282
    0
283
    1
284
    0
285
    0
286
    0
288
    0
289
    3
340
STANDARD
341

371
   -2
372
   -2
  0
ENDTAB
  0
TABLE
  2
BLOCK_RECORD
  5
1
330
0
100
AcDbSymbolTable
 70
    2
  0
BLOCK_RECORD
  5
1F
330
1
100
AcDbSymbolTableRecord
100
AcDbBlockTableRecord
  2
*Model_Space
 70
    0
280
    1
281
    0
  0
BLOCK_RECORD
  5
1E
330
1
100
AcDbSymbolTableRecord
100
AcDbBlockTableRecord
  2
*Paper_Space
 70
    0
280
    1
281
    0
  0
ENDTAB
  0
ENDSEC
  0
SECTION
  2
BLOCKS
  0
BLOCK
  5
20
330
1F
100
AcDbEntity
  8
0
100
AcDbBlockBegin
  2
*Model_Space
 70
    0
 10
0
 20
0
 30
0
  3
*Model_Space
  1

  0
ENDBLK
  5
21
330
1F
100
AcDbEntity
  8
0
100
AcDbBlockEnd
  0
BLOCK
  5
1C
330
1B
100
AcDbEntity
  8
0
100
AcDbBlockBegin
  2
*Paper_Space
 70
    0
 10
0
 20
0
 30
0
  3
*Paper_Space
  1

  0
ENDBLK
  5
1D
330
1F
100
AcDbEntity
  8
0
100
AcDbBlockEnd
  0
ENDSEC
  0
SECTION
  2
ENTITIES
  0
ARC
  5
4D
100
AcDbEntity
  8
0
  6
ByLayer
 62
  256
370
   -1
100
AcDbCircle
 10
4
 20
4
 40
3.000000000000014
100
AcDbArc
 50
179.9999999999997
 51
269.9999999999998
  0
LINE
  5
4E
100
AcDbEntity
  8
0
  6
ByLayer
 62
  256
370
   -1
100
AcDbLine
 10
0.9999999999999858
 20
4.000000000000014
 11
0.9999999999999858
 21
8.500000000001236
  0
ARC
  5
4F
100
AcDbEntity
  8
0
  6
ByLayer
 62
  256
370
   -1
100
AcDbCircle
 10
0.9999985098494051
 20
9.400000000000013
 40
0.9000000000000101
100
AcDbArc
 50
270.0000948659322
 51
89.99990513406784
  0
LINE
  5
50
100
AcDbEntity
  8
0
  6
ByLayer
 62
  256
370
   -1
100
AcDbLine
 10
0.9999999999999858
 20
10.29999999999878
 11
0.9999999999999858
 21
21.7
  0
ARC
  5
51
100
AcDbEntity
  8
0
  6
ByLayer
 62
  256
370
   -1
100
AcDbCircle
 10
0.9999999999999858
 20
22.60000000000001
 40
0.9000000000000056
100
AcDbArc
 50
270
 51
90
  0
LINE
  5
52
100
AcDbEntity
  8
0
  6
ByLayer
 62
  256
370
   -1
100
AcDbLine
 10
0.9999999999999858
 20
23.50000000000001
 11
1
 21
27.99999999999996
  0
ARC
  5
53
100
AcDbEntity
  8
0
  6
ByLayer
 62
  256
370
   -1
100
AcDbCircle
 10
3.999999999999993
 20
27.99999999999996
 40
2.999999999999996
100
AcDbArc
 50
89.99999999999939
 51
180
  0
LINE
  5
54
100
AcDbEntity
  8
0
  6
ByLayer
 62
  256
370
   -1
100
AcDbLine
 10
4.000000000000028
 20
30.99999999999996
 11
16.09999999999998
 21
31.00000000000004
  0
ARC
  5
55
100
AcDbEntity
  8
0
  6
ByLayer
 62
  256
370
   -1
100
AcDbCircle
 10
16.09999999999995
 20
27.99999999999999
 40
3.000000000000056
100
AcDbArc
 50
359.9999999999993
 51
89.99999999999945
  0
LINE
  5
56
100
AcDbEntity
  8
0
  6
ByLayer
 62
  256
370
   -1
100
AcDbLine
 10
19.10000000000001
 20
27.99999999999996
 11
19.10000000000001
 21
22.60000000000001
  0
ARC
  5
57
100
AcDbEntity
  8
0
  6
ByLayer
 62
  256
370
   -1
100
AcDbCircle
 10
20.00000000000001
 20
22.60000000000001
 40
0.8999999999999985
100
AcDbArc
 50
180
 51
0
  0
LINE
  5
58
100
AcDbEntity
  8
0
  6
ByLayer
 62
  256
370
   -1
100
AcDbLine
 10
20.90000000000001
 20
22.60000000000001
 11
20.90000000000002
 21
28.00000000000007
  0
ARC
  5
59
100
AcDbEntity
  8
0
  6
ByLayer
 62
  256
370
   -1
100
AcDbCircle
 10
23.90000000000001
 20
28.00000000000004
 40
2.999999999999985
100
AcDbArc
 50
89.99999999999973
 51
179.9999999999997
  0
LINE
  5
5A
100
AcDbEntity
  8
0
  6
ByLayer
 62
  256
370
   -1
100
AcDbLine
 10
23.90000000000002
 20
31.00000000000004
 11
218.0909954713139
 21
30.15130617220383
  0
ARC
  5
5B
100
AcDbEntity
  8
0
  6
ByLayer
 62
  256
370
   -1
100
AcDbCircle
 10
218.0909954713139
 20
27.15130617220383
 40
3
100
AcDbArc
 50
0
 51
90
  0
LINE
  5
5C
100
AcDbEntity
  8
0
  6
ByLayer
 62
  256
370
   -1
100
AcDbLine
 10
221.090995471314
 20
27.15130617220383
 11
221.090995471314
 21
21.75130617220377
  0
ARC
  5
5D
100
AcDbEntity
  8
0
  6
ByLayer
 62
  256
370
   -1
100
AcDbCircle
 10
221.990995471314
 20
21.75130617220377
 40
0.9000000000000341
100
AcDbArc
 50
180
 51
0
  0
LINE
  5
5E
100
AcDbEntity
  8
0
  6
ByLayer
 62
  256
370
   -1
100
AcDbLine
 10
222.8909954713141
 20
21.75130617220377
 11
222.8909954713141
 21
27.15130617220372
  0
ARC
  5
5F
100
AcDbEntity
  8
0
  6
ByLayer
 62
  256
370
   -1
100
AcDbCircle
 10
225.8909954713141
 20
27.15130617220375
 40
3.000000000000056
100
AcDbArc
 50
90
 51
180.0000000000004
  0
LINE
  5
60
100
AcDbEntity
  8
0
  6
ByLayer
 62
  256
370
   -1
100
AcDbLine
 10
225.8909954713141
 20
30.1513061722038
 11
237.990995471314
 21
30.1513061722038
  0
ARC
  5
61
100
AcDbEntity
  8
0
  6
ByLayer
 62
  256
370
   -1
100
AcDbCircle
 10
237.990995471314
 20
27.15130617220375
 40
3.000000000000056
100
AcDbArc
 50
359.9999999999993
 51
90
  0
LINE
  5
62
100
AcDbEntity
  8
0
  6
ByLayer
 62
  256
370
   -1
100
AcDbLine
 10
240.990995471314
 20
27.15130617220372
 11
240.990995471314
 21
22.65130617220377
  0
ARC
  5
63
100
AcDbEntity
  8
0
  6
ByLayer
 62
  256
370
   -1
100
AcDbCircle
 10
240.990995471314
 20
21.75130617220377
 40
0.9000000000000056
100
AcDbArc
 50
90
 51
270
  0
LINE
  5
64
100
AcDbEntity
  8
0
  6
ByLayer
 62
  256
370
   -1
100
AcDbLine
 10
240.990995471314
 20
20.85130617220376
 11
240.990995471314
 21
9.45130617220255
  0
ARC
  5
65
100
AcDbEntity
  8
0
  6
ByLayer
 62
  256
370
   -1
100
AcDbCircle
 10
240.9909969614645
 20
8.55130617220378
 40
0.9000000000000101
100
AcDbArc
 50
90.00009486593162
 51
269.9999051340684
  0
LINE
  5
66
100
AcDbEntity
  8
0
  6
ByLayer
 62
  256
370
   -1
100
AcDbLine
 10
240.990995471314
 20
7.65130617220499
 11
240.990995471314
 21
3.151306172203782
  0
ARC
  5
67
100
AcDbEntity
  8
0
  6
ByLayer
 62
  256
370
   -1
100
AcDbCircle
 10
237.990995471314
 20
3.151306172203782
 40
3
100
AcDbArc
 50
270
 51
0
  0
LINE
  5
68
100
AcDbEntity
  8
0
  6
ByLayer
 62
  256
370
   -1
100
AcDbLine
 10
237.990995471314
 20
0.1513061722037818
 11
225.8909954713141
 21
0.1513061722037534
  0
ARC
  5
69
100
AcDbEntity
  8
0
  6
ByLayer
 62
  256
370
   -1
100
AcDbCircle
 10
225.8909954713141
 20
3.151306172203775
 40
3.000000000000014
100
AcDbArc
 50
180.0000000000003
 51
270.0000000000004
  0
LINE
  5
6A
100
AcDbEntity
  8
0
  6
ByLayer
 62
  256
370
   -1
100
AcDbLine
 10
222.8909954713141
 20
3.151306172203753
 11
222.8909954713141
 21
8.551306172203773
  0
ARC
  5
6B
100
AcDbEntity
  8
0
  6
ByLayer
 62
  256
370
   -1
100
AcDbCircle
 10
221.990995471314
 20
8.551306172203773
 40
0.9000000000000056
100
AcDbArc
 50
0
 51
180
  0
LINE
  5
6C
100
AcDbEntity
  8
0
  6
ByLayer
 62
  256
370
   -1
100
AcDbLine
 10
221.090995471314
 20
8.551306172203773
 11
221.090995471314
 21
3.151306172203782
  0
ARC
  5
6D
100
AcDbEntity
  8
0
  6
ByLayer
 62
  256
370
   -1
100
AcDbCircle
 10
218.0909954713139
 20
3.151306172203775
 40
3
100
AcDbArc
 50
270
 51
2.735028545224135e-013
  0
LINE
  5
6E
100
AcDbEntity
  8
0
  6
ByLayer
 62
  256
370
   -1
100
AcDbLine
 10
218.0909954713139
 20
0.1513061722037534
 11
23.90000000000002
 21
0.9999999999999858
  0
ARC
  5
6F
100
AcDbEntity
  8
0
  6
ByLayer
 62
  256
370
   -1
100
AcDbCircle
 10
23.90000000000003
 20
4.000000000000014
 40
3.000000000000021
100
AcDbArc
 50
179.9999999999998
 51
269.9999999999998
  0
LINE
  5
70
100
AcDbEntity
  8
0
  6
ByLayer
 62
  256
370
   -1
100
AcDbLine
 10
20.90000000000001
 20
4.000000000000014
 11
20.90000000000001
 21
9.400000000000006
  0
ARC
  5
71
100
AcDbEntity
  8
0
  6
ByLayer
 62
  256
370
   -1
100
AcDbCircle
 10
20.00000000000001
 20
9.400000000000006
 40
0.8999999999999985
100
AcDbArc
 50
0
 51
180
  0
LINE
  5
72
100
AcDbEntity
  8
0
  6
ByLayer
 62
  256
370
   -1
100
AcDbLine
 10
19.10000000000001
 20
9.400000000000006
 11
19.10000000000001
 21
3.999999999999986
  0
ARC
  5
73
100
AcDbEntity
  8
0
  6
ByLayer
 62
  256
370
   -1
100
AcDbCircle
 10
16.09999999999999
 20
4
 40
3.000000000000014
100
AcDbArc
 50
269.9999999999998
 51
359.9999999999998
  0
LINE
  5
74
100
AcDbEntity
  8
0
  6
ByLayer
 62
  256
370
   -1
100
AcDbLine
 10
16.09999999999998
 20
0.9999999999999858
 11
3.999999999999986
 21
0.9999999999999858
  0
ARC
  5
75
100
AcDbEntity
  8
0
  6
ByLayer
 62
  256
370
   -1
100
AcDbCircle
 10
158.2713188817426
 20
104.1700755270581
 40
1.999999999999992
100
AcDbArc
 50
180
 51
270
  0
LINE
  5
76
100
AcDbEntity
  8
0
  6
ByLayer
 62
  256
370
   -1
100
AcDbLine
 10
168.2713188817426
 20
102.1700755270581
 11
158.2713188817426
 21
102.1700755270581
  0
LINE
  5
77
100
AcDbEntity
  8
0
  6
ByLayer
 62
  256
370
   -1
100
AcDbLine
 10
88.26842403234983
 20
108.1358741866638
 11
78.26842403234983
 21
108.1358741866638
  0
ARC
  5
78
100
AcDbEntity
  8
0
  6
ByLayer
 62
  256
370
   -1
100
AcDbCircle
 10
78.26842403234983
 20
106.1358741866638
 40
1.999999999999992
100
AcDbArc
 50
90
 51
180
  0
LINE
  5
79
100
AcDbEntity
  8
0
  6
ByLayer
 62
  256
370
   -1
100
AcDbLine
 10
76.26842403234983
 20
106.1358741866638
 11
76.26842403234983
 21
104.1358754830648
  0
ARC
  5
7A
100
AcDbEntity
  8
0
  6
ByLayer
 62
  256
370
   -1
100
AcDbCircle
 10
78.26842403234983
 20
104.1358754830648
 40
1.999999999999992
100
AcDbArc
 50
180
 51
270
  0
LINE
  5
7B
100
AcDbEntity
  8
0
  6
ByLayer
 62
  256
370
   -1
100
AcDbLine
 10
88.26842403234983
 20
102.1358754830648
 11
78.26842403234983
 21
102.1358754830648
  0
LINE
  5
7C
100
AcDbEntity
  8
0
  6
ByLayer
 62
  256
370
   -1
100
AcDbLine
 10
156.2713188817426
 20
106.1700742306571
 11
156.2713188817426
 21
104.1700755270581
  0
ARC
  5
7D
100
AcDbEntity
  8
0
  6
ByLayer
 62
  256
370
   -1
100
AcDbCircle
 10
158.2713188817426
 20
106.1700742306571
 40
1.999999999999992
100
AcDbArc
 50
90
 51
180
  0
LINE
  5
7E
100
AcDbEntity
  8
0
  6
ByLayer
 62
  256
370
   -1
100
AcDbLine
 10
168.2713188817426
 20
108.1700742306571
 11
158.2713188817426
 21
108.1700742306571
  0
ARC
  5
7F
100
AcDbEntity
  8
0
  6
CONTINUOUS
 62
  256
370
   -1
100
AcDbCircle
 10
88.26842403234983
 20
111.1358741866638
 40
3
100
AcDbArc
 50
270
 51
0
  0
ARC
  5
80
100
AcDbEntity
  8
0
  6
CONTINUOUS
 62
  256
370
   -1
100
AcDbCircle
 10
88.26842403234983
 20
99.13587548306481
 40
3
100
AcDbArc
 50
0
 51
90
  0
ARC
  5
81
100
AcDbEntity
  8
0
  6
CONTINUOUS
 62
  256
370
   -1
100
AcDbCircle
 10
168.2713188817426
 20
111.1700742306571
 40
3
100
AcDbArc
 50
270
 51
0
  0
ARC
  5
82
100
AcDbEntity
  8
0
  6
CONTINUOUS
 62
  256
370
   -1
100
AcDbCircle
 10
168.2713188817426
 20
99.1700755270581
 40
3
100
AcDbArc
 50
0
 51
90
  0
ARC
  5
83
100
AcDbEntity
  8
0
  6
ByLayer
 62
  256
370
   -1
100
AcDbCircle
 10
8.272234521763869
 20
115.1641629204176
 40
5
100
AcDbArc
 50
90
 51
180
  0
LINE
  5
84
100
AcDbEntity
  8
0
  6
ByLayer
 62
  256
370
   -1
100
AcDbLine
 10
3.272234521763869
 20
115.1641629204176
 11
3.272234521763869
 21
95.1641629204176
  0
ARC
  5
85
100
AcDbEntity
  8
0
  6
ByLayer
 62
  256
370
   -1
100
AcDbCircle
 10
8.272234521763869
 20
95.1641629204176
 40
5
100
AcDbArc
 50
180
 51
270
  0
ARC
  5
86
100
AcDbEntity
  8
0
  6
ByLayer
 62
  256
370
   -1
100
AcDbCircle
 10
24.27223452176381
 20
95.4141629204176
 40
0.8999999999999914
100
AcDbArc
 50
179.9999999999964
 51
359.9999999999973
  0
LINE
  5
87
100
AcDbEntity
  8
0
  6
ByLayer
 62
  256
370
   -1
100
AcDbLine
 10
23.37223452176383
 20
95.4141629204176
 11
23.37223452176377
 21
114.9141629204177
  0
ARC
  5
88
100
AcDbEntity
  8
0
  6
ByLayer
 62
  256
370
   -1
100
AcDbCircle
 10
24.27223452176387
 20
114.9141629204176
 40
0.9000000000000341
100
AcDbArc
 50
359.9999999999964
 51
179.9999999999964
  0
LINE
  5
89
100
AcDbEntity
  8
0
  6
ByLayer
 62
  256
370
   -1
100
AcDbLine
 10
25.17223452176384
 20
114.9141629204175
 11
25.17223452176384
 21
95.4141629204175
  0
LINE
  5
8A
100
AcDbEntity
  8
0
  6
ByLayer
 62
  256
370
   -1
100
AcDbLine
 10
8.372234521763827
 20
95.4141629204176
 11
8.372234521763827
 21
114.9141629204176
  0
ARC
  5
8B
100
AcDbEntity
  8
0
  6
ByLayer
 62
  256
370
   -1
100
AcDbCircle
 10
9.272234521763867
 20
114.9141629204176
 40
0.9000000000000198
100
AcDbArc
 50
0
 51
180
  0
LINE
  5
8C
100
AcDbEntity
  8
0
  6
ByLayer
 62
  256
370
   -1
100
AcDbLine
 10
10.17223452176384
 20
114.9141629204176
 11
10.17223452176384
 21
95.4141629204176
  0
ARC
  5
8D
100
AcDbEntity
  8
0
  6
ByLayer
 62
  256
370
   -1
100
AcDbCircle
 10
9.272234521763867
 20
95.4141629204176
 40
0.9000000000000198
100
AcDbArc
 50
180
 51
0
  0
LINE
  5
8E
100
AcDbEntity
  8
0
  6
ByLayer
 62
  256
370
   -1
100
AcDbLine
 10
42.32223452176382
 20
111.7641629204176
 11
60.22223452176391
 21
111.7641629204176
  0
ARC
  5
8F
100
AcDbEntity
  8
0
  6
ByLayer
 62
  256
370
   -1
100
AcDbCircle
 10
60.22223452176391
 20
112.6641629204176
 40
0.9
100
AcDbArc
 50
270
 51
0
  0
LINE
  5
90
100
AcDbEntity
  8
0
  6
ByLayer
 62
  256
370
   -1
100
AcDbLine
 10
61.12223452176389
 20
112.6641629204176
 11
61.12223452176389
 21
112.6641629204176
  0
ARC
  5
91
100
AcDbEntity
  8
0
  6
ByLayer
 62
  256
370
   -1
100
AcDbCircle
 10
60.22223452176391
 20
112.6641629204176
 40
0.9
100
AcDbArc
 50
0
 51
90
  0
LINE
  5
92
100
AcDbEntity
  8
0
  6
ByLayer
 62
  256
370
   -1
100
AcDbLine
 10
60.22223452176391
 20
113.5641629204176
 11
42.32223452176382
 21
113.5641629204176
  0
ARC
  5
93
100
AcDbEntity
  8
0
  6
ByLayer
 62
  256
370
   -1
100
AcDbCircle
 10
42.32223452176382
 20
112.6641629204176
 40
0.9
100
AcDbArc
 50
90
 51
180
  0
LINE
  5
94
100
AcDbEntity
  8
0
  6
ByLayer
 62
  256
370
   -1
100
AcDbLine
 10
41.42223452176384
 20
112.6641629204176
 11
41.42223452176384
 21
112.6641629204176
  0
ARC
  5
95
100
AcDbEntity
  8
0
  6
ByLayer
 62
  256
370
   -1
100
AcDbCircle
 10
42.32223452176382
 20
112.6641629204176
 40
0.9
100
AcDbArc
 50
180
 51
270
  0
LINE
  5
96
100
AcDbEntity
  8
0
  6
ByLayer
 62
  256
370
   -1
100
AcDbLine
 10
42.32223452176393
 20
96.7641629204176
 11
60.22223452176391
 21
96.7641629204176
  0
ARC
  5
97
100
AcDbEntity
  8
0
  6
ByLayer
 62
  256
370
   -1
100
AcDbCircle
 10
60.22223452176391
 20
97.6641629204176
 40
0.9
100
AcDbArc
 50
270
 51
0
  0
LINE
  5
98
100
AcDbEntity
  8
0
  6
ByLayer
 62
  256
370
   -1
100
AcDbLine
 10
61.12223452176389
 20
97.6641629204176
 11
61.12223452176389
 21
97.6641629204176
  0
ARC
  5
99
100
AcDbEntity
  8
0
  6
ByLayer
 62
  256
370
   -1
100
AcDbCircle
 10
60.22223452176391
 20
97.6641629204176
 40
0.9
100
AcDbArc
 50
0
 51
90
  0
LINE
  5
9A
100
AcDbEntity
  8
0
  6
ByLayer
 62
  256
370
   -1
100
AcDbLine
 10
60.22223452176391
 20
98.5641629204176
 11
42.32223452176393
 21
98.5641629204176
  0
ARC
  5
9B
100
AcDbEntity
  8
0
  6
ByLayer
 62
  256
370
   -1
100
AcDbCircle
 10
42.32223452176393
 20
97.6641629204176
 40
0.9
100
AcDbArc
 50
90
 51
180
  0
LINE
  5
9C
100
AcDbEntity
  8
0
  6
ByLayer
 62
  256
370
   -1
100
AcDbLine
 10
41.42223452176396
 20
97.6641629204176
 11
41.42223452176396
 21
97.6641629204176
  0
ARC
  5
9D
100
AcDbEntity
  8
0
  6
ByLayer
 62
  256
370
   -1
100
AcDbCircle
 10
42.32223452176393
 20
97.6641629204176
 40
0.9
100
AcDbArc
 50
180
 51
270
  0
LINE
  5
9E
100
AcDbEntity
  8
0
  6
ByLayer
 62
  256
370
   -1
100
AcDbLine
 10
194.5793674068754
 20
111.9190511103132
 11
212.4793674068755
 21
111.9190511103132
  0
ARC
  5
9F
100
AcDbEntity
  8
0
  6
ByLayer
 62
  256
370
   -1
100
AcDbCircle
 10
212.4793674068755
 20
112.8190511103132
 40
0.9
100
AcDbArc
 50
270
 51
0
  0
LINE
  5
A0
100
AcDbEntity
  8
0
  6
ByLayer
 62
  256
370
   -1
100
AcDbLine
 10
213.3793674068755
 20
112.8190511103132
 11
213.3793674068755
 21
112.8190511103132
  0
ARC
  5
A1
100
AcDbEntity
  8
0
  6
ByLayer
 62
  256
370
   -1
100
AcDbCircle
 10
212.4793674068755
 20
112.8190511103132
 40
0.9
100
AcDbArc
 50
0
 51
90
  0
LINE
  5
A2
100
AcDbEntity
  8
0
  6
ByLayer
 62
  256
370
   -1
100
AcDbLine
 10
212.4793674068755
 20
113.7190511103132
 11
194.5793674068754
 21
113.7190511103132
  0
ARC
  5
A3
100
AcDbEntity
  8
0
  6
ByLayer
 62
  256
370
   -1
100
AcDbCircle
 10
194.5793674068754
 20
112.8190511103132
 40
0.9
100
AcDbArc
 50
90
 51
180
  0
LINE
  5
A4
100
AcDbEntity
  8
0
  6
ByLayer
 62
  256
370
   -1
100
AcDbLine
 10
193.6793674068754
 20
112.8190511103132
 11
193.6793674068754
 21
112.8190511103132
  0
ARC
  5
A5
100
AcDbEntity
  8
0
  6
ByLayer
 62
  256
370
   -1
100
AcDbCircle
 10
194.5793674068754
 20
112.8190511103132
 40
0.9
100
AcDbArc
 50
180
 51
270
  0
LINE
  5
A6
100
AcDbEntity
  8
0
  6
ByLayer
 62
  256
370
   -1
100
AcDbLine
 10
194.5793674068755
 20
96.91905111031321
 11
212.4793674068755
 21
96.91905111031321
  0
ARC
  5
A7
100
AcDbEntity
  8
0
  6
ByLayer
 62
  256
370
   -1
100
AcDbCircle
 10
212.4793674068755
 20
97.8190511103132
 40
0.9
100
AcDbArc
 50
270
 51
0
  0
LINE
  5
A8
100
AcDbEntity
  8
0
  6
ByLayer
 62
  256
370
   -1
100
AcDbLine
 10
213.3793674068755
 20
97.8190511103132
 11
213.3793674068755
 21
97.8190511103132
  0
ARC
  5
A9
100
AcDbEntity
  8
0
  6
ByLayer
 62
  256
370
   -1
100
AcDbCircle
 10
212.4793674068755
 20
97.8190511103132
 40
0.9
100
AcDbArc
 50
0
 51
90
  0
LINE
  5
AA
100
AcDbEntity
  8
0
  6
ByLayer
 62
  256
370
   -1
100
AcDbLine
 10
212.4793674068755
 20
98.7190511103132
 11
194.5793674068755
 21
98.7190511103132
  0
ARC
  5
AB
100
AcDbEntity
  8
0
  6
ByLayer
 62
  256
370
   -1
100
AcDbCircle
 10
194.5793674068755
 20
97.8190511103132
 40
0.9
100
AcDbArc
 50
90
 51
180
  0
LINE
  5
AC
100
AcDbEntity
  8
0
  6
ByLayer
 62
  256
370
   -1
100
AcDbLine
 10
193.6793674068755
 20
97.8190511103132
 11
193.6793674068755
 21
97.8190511103132
  0
ARC
  5
AD
100
AcDbEntity
  8
0
  6
ByLayer
 62
  256
370
   -1
100
AcDbCircle
 10
194.5793674068755
 20
97.8190511103132
 40
0.9
100
AcDbArc
 50
180
 51
270
  0
ARC
  5
AE
100
AcDbEntity
  8
0
  6
ByLayer
 62
  256
370
   -1
100
AcDbCircle
 10
215.2722345217639
 20
95.1641629204176
 40
5
100
AcDbArc
 50
270
 51
0
  0
LINE
  5
AF
100
AcDbEntity
  8
0
  6
ByLayer
 62
  256
370
   -1
100
AcDbLine
 10
220.2722345217638
 20
95.1641629204176
 11
220.2722345217638
 21
115.1641629204176
  0
ARC
  5
B0
100
AcDbEntity
  8
0
  6
ByLayer
 62
  256
370
   -1
100
AcDbCircle
 10
215.2722345217639
 20
115.1641629204176
 40
5
100
AcDbArc
 50
0
 51
90
  0
LINE
  5
B1
100
AcDbEntity
  8
0
  6
ByLayer
 62
  256
370
   -1
100
AcDbLine
 10
8.272234521763869
 20
120.1641629204176
 11
215.2722345217639
 21
120.1641629204176
  0
LINE
  5
B2
100
AcDbEntity
  8
0
  6
ByLayer
 62
  256
370
   -1
100
AcDbLine
 10
8.272234521763869
 20
90.1641629204176
 11
215.2722345217639
 21
90.1641629204176
  0
LINE
  5
B3
100
AcDbEntity
  8
0
  6
ByLayer
 62
  256
370
   -1
100
AcDbLine
 10
46.24699995916235
 20
140.3770387916334
 11
56.24699995916235
 21
140.3770387916334
  0
ARC
  5
B4
100
AcDbEntity
  8
0
  6
ByLayer
 62
  256
370
   -1
100
AcDbCircle
 10
56.24699995916235
 20
138.3770387916334
 40
1.999999999999992
100
AcDbArc
 50
0
 51
90
  0
LINE
  5
B5
100
AcDbEntity
  8
0
  6
ByLayer
 62
  256
370
   -1
100
AcDbLine
 10
58.24699995916235
 20
138.3770387916334
 11
58.24699995916235
 21
136.3770400880344
  0
ARC
  5
B6
100
AcDbEntity
  8
0
  6
ByLayer
 62
  256
370
   -1
100
AcDbCircle
 10
56.24699995916235
 20
136.3770400880344
 40
1.999999999999992
100
AcDbArc
 50
270
 51
0
  0
LINE
  5
B7
100
AcDbEntity
  8
0
  6
ByLayer
 62
  256
370
   -1
100
AcDbLine
 10
46.24699995916235
 20
134.3770400880344
 11
56.24699995916235
 21
134.3770400880344
  0
LINE
  5
B8
100
AcDbEntity
  8
0
  6
ByLayer
 62
  256
370
   -1
100
AcDbLine
 10
126.7567435949703
 20
140.3768974505435
 11
136.7567435949703
 21
140.3768974505435
  0
ARC
  5
B9
100
AcDbEntity
  8
0
  6
ByLayer
 62
  256
370
   -1
100
AcDbCircle
 10
136.7567435949703
 20
138.3768974505435
 40
1.999999999999985
100
AcDbArc
 50
8.141971503712113e-013
 51
90
  0
LINE
  5
BA
100
AcDbEntity
  8
0
  6
ByLayer
 62
  256
370
   -1
100
AcDbLine
 10
138.7567435949703
 20
138.3768974505435
 11
138.7567435949703
 21
136.3768987469445
  0
ARC
  5
BB
100
AcDbEntity
  8
0
  6
ByLayer
 62
  256
370
   -1
100
AcDbCircle
 10
136.7567435949703
 20
136.3768987469445
 40
2
100
AcDbArc
 50
270
 51
0
  0
LINE
  5
BC
100
AcDbEntity
  8
0
  6
ByLayer
 62
  256
370
   -1
100
AcDbLine
 10
136.7567435949703
 20
134.3768987469445
 11
126.7567435949703
 21
134.3768987469445
  0
ARC
  5
BD
100
AcDbEntity
  8
0
  6
CONTINUOUS
 62
  256
370
   -1
100
AcDbCircle
 10
46.24699995916235
 20
131.3770400880344
 40
3
100
AcDbArc
 50
90
 51
180
  0
ARC
  5
BE
100
AcDbEntity
  8
0
  6
CONTINUOUS
 62
  256
370
   -1
100
AcDbCircle
 10
46.49699995916235
 20
143.1270387916334
 40
2.761340254296815
100
AcDbArc
 50
174.8055710922652
 51
264.8055710922652
  0
ARC
  5
BF
100
AcDbEntity
  8
0
  6
CONTINUOUS
 62
  256
370
   -1
100
AcDbCircle
 10
126.7567435949703
 20
131.3768987469445
 40
3
100
AcDbArc
 50
90
 51
180
  0
ARC
  5
C0
100
AcDbEntity
  8
0
  6
CONTINUOUS
 62
  256
370
   -1
100
AcDbCircle
 10
126.7567435949703
 20
143.3768974505435
 40
3
100
AcDbArc
 50
180
 51
270
  0
ARC
  5
C1
100
AcDbEntity
  8
0
  6
ByLayer
 62
  256
370
   -1
100
AcDbCircle
 10
206.7546423517116
 20
127.3765477355911
 40
5
100
AcDbArc
 50
270
 51
0
  0
LINE
  5
C2
100
AcDbEntity
  8
0
  6
ByLayer
 62
  256
370
   -1
100
AcDbLine
 10
211.7546423517115
 20
127.3765477355911
 11
211.7546423517115
 21
147.3765477355912
  0
ARC
  5
C3
100
AcDbEntity
  8
0
  6
ByLayer
 62
  256
370
   -1
100
AcDbCircle
 10
206.7546423517116
 20
147.3765477355912
 40
5
100
AcDbArc
 50
0
 51
90
  0
ARC
  5
C4
100
AcDbEntity
  8
0
  6
ByLayer
 62
  256
370
   -1
100
AcDbCircle
 10
205.7546423517116
 20
127.6265477355911
 40
0.9000000000000341
100
AcDbArc
 50
179.9999999999964
 51
359.9999999999973
  0
LINE
  5
C5
100
AcDbEntity
  8
0
  6
ByLayer
 62
  256
370
   -1
100
AcDbLine
 10
204.8546423517117
 20
127.6265477355911
 11
204.8546423517117
 21
147.1265477355912
  0
ARC
  5
C6
100
AcDbEntity
  8
0
  6
ByLayer
 62
  256
370
   -1
100
AcDbCircle
 10
205.7546423517116
 20
147.1265477355912
 40
0.8999999999999772
100
AcDbArc
 50
0
 51
180
  0
LINE
  5
C7
100
AcDbEntity
  8
0
  6
ByLayer
 62
  256
370
   -1
100
AcDbLine
 10
206.6546423517117
 20
147.1265477355912
 11
206.6546423517117
 21
127.6265477355911
  0
ARC
  5
C8
100
AcDbEntity
  8
0
  6
ByLayer
 62
  256
370
   -1
100
AcDbCircle
 10
190.7546423517118
 20
127.6265477355911
 40
0.9000000000000341
100
AcDbArc
 50
179.9999999999964
 51
359.9999999999973
  0
LINE
  5
C9
100
AcDbEntity
  8
0
  6
ByLayer
 62
  256
370
   -1
100
AcDbLine
 10
189.8546423517117
 20
127.6265477355911
 11
189.8546423517117
 21
147.1265477355912
  0
ARC
  5
CA
100
AcDbEntity
  8
0
  6
ByLayer
 62
  256
370
   -1
100
AcDbCircle
 10
190.7546423517118
 20
147.1265477355912
 40
0.9000000000000341
100
AcDbArc
 50
0
 51
180
  0
LINE
  5
CB
100
AcDbEntity
  8
0
  6
ByLayer
 62
  256
370
   -1
100
AcDbLine
 10
191.6546423517117
 20
147.1265477355912
 11
191.6546423517117
 21
127.6265477355911
  0
LINE
  5
CC
100
AcDbEntity
  8
0
  6
ByLayer
 62
  256
370
   -1
100
AcDbLine
 10
154.8046423517116
 20
143.9765477355912
 11
172.7046423517117
 21
143.9765477355912
  0
ARC
  5
CD
100
AcDbEntity
  8
0
  6
ByLayer
 62
  256
370
   -1
100
AcDbCircle
 10
172.7046423517117
 20
144.8765477355912
 40
0.9
100
AcDbArc
 50
270
 51
0
  0
LINE
  5
CE
100
AcDbEntity
  8
0
  6
ByLayer
 62
  256
370
   -1
100
AcDbLine
 10
173.6046423517116
 20
144.8765477355912
 11
173.6046423517116
 21
144.8765477355912
  0
ARC
  5
CF
100
AcDbEntity
  8
0
  6
ByLayer
 62
  256
370
   -1
100
AcDbCircle
 10
172.7046423517117
 20
144.8765477355912
 40
0.9
100
AcDbArc
 50
0
 51
90
  0
LINE
  5
D0
100
AcDbEntity
  8
0
  6
ByLayer
 62
  256
370
   -1
100
AcDbLine
 10
172.7046423517117
 20
145.7765477355912
 11
154.8046423517116
 21
145.7765477355912
  0
ARC
  5
D1
100
AcDbEntity
  8
0
  6
ByLayer
 62
  256
370
   -1
100
AcDbCircle
 10
154.8046423517116
 20
144.8765477355912
 40
0.9
100
AcDbArc
 50
90
 51
180
  0
LINE
  5
D2
100
AcDbEntity
  8
0
  6
ByLayer
 62
  256
370
   -1
100
AcDbLine
 10
153.9046423517115
 20
144.8765477355912
 11
153.9046423517115
 21
144.8765477355912
  0
ARC
  5
D3
100
AcDbEntity
  8
0
  6
ByLayer
 62
  256
370
   -1
100
AcDbCircle
 10
154.8046423517116
 20
144.8765477355912
 40
0.9
100
AcDbArc
 50
180
 51
270
  0
LINE
  5
D4
100
AcDbEntity
  8
0
  6
ByLayer
 62
  256
370
   -1
100
AcDbLine
 10
154.8046423517116
 20
128.9765477355912
 11
172.7046423517117
 21
128.9765477355912
  0
ARC
  5
D5
100
AcDbEntity
  8
0
  6
ByLayer
 62
  256
370
   -1
100
AcDbCircle
 10
172.7046423517117
 20
129.8765477355912
 40
0.9
100
AcDbArc
 50
270
 51
0
  0
LINE
  5
D6
100
AcDbEntity
  8
0
  6
ByLayer
 62
  256
370
   -1
100
AcDbLine
 10
173.6046423517118
 20
129.8765477355912
 11
173.6046423517118
 21
129.8765477355912
  0
ARC
  5
D7
100
AcDbEntity
  8
0
  6
ByLayer
 62
  256
370
   -1
100
AcDbCircle
 10
172.7046423517117
 20
129.8765477355912
 40
0.9
100
AcDbArc
 50
0
 51
90
  0
LINE
  5
D8
100
AcDbEntity
  8
0
  6
ByLayer
 62
  256
370
   -1
100
AcDbLine
 10
172.7046423517117
 20
130.7765477355912
 11
154.8046423517116
 21
130.7765477355912
  0
ARC
  5
D9
100
AcDbEntity
  8
0
  6
ByLayer
 62
  256
370
   -1
100
AcDbCircle
 10
154.8046423517116
 20
129.8765477355912
 40
0.9
100
AcDbArc
 50
90
 51
180
  0
LINE
  5
DA
100
AcDbEntity
  8
0
  6
ByLayer
 62
  256
370
   -1
100
AcDbLine
 10
153.9046423517117
 20
129.8765477355912
 11
153.9046423517117
 21
129.8765477355912
  0
ARC
  5
DB
100
AcDbEntity
  8
0
  6
ByLayer
 62
  256
370
   -1
100
AcDbCircle
 10
154.8046423517116
 20
129.8765477355912
 40
0.9
100
AcDbArc
 50
180
 51
270
  0
LINE
  5
DC
100
AcDbEntity
  8
0
  6
ByLayer
 62
  256
370
   -1
100
AcDbLine
 10
21.86177523682325
 20
130.0314359254868
 11
21.86177523682325
 21
130.0314359254868
  0
LINE
  5
DD
100
AcDbEntity
  8
0
  6
ByLayer
 62
  256
370
   -1
100
AcDbLine
 10
2.161775236823317
 20
130.0314359254868
 11
2.161775236823317
 21
130.0314359254868
  0
ARC
  5
DE
100
AcDbEntity
  8
0
  6
ByLayer
 62
  256
370
   -1
100
AcDbCircle
 10
5.89718032871572
 20
125.3765477355912
 40
3.000000000000014
100
AcDbArc
 50
179.9999999999997
 51
269.9999999999998
  0
LINE
  5
DF
100
AcDbEntity
  8
0
  6
ByLayer
 62
  256
370
   -1
100
AcDbLine
 10
2.89718032871572
 20
125.3765477355912
 11
2.89718032871572
 21
129.8765477355924
  0
ARC
  5
E0
100
AcDbEntity
  8
0
  6
ByLayer
 62
  256
370
   -1
100
AcDbCircle
 10
2.897178838565154
 20
130.7765477355912
 40
0.9000000000000101
100
AcDbArc
 50
270.0000948659322
 51
89.99990513406784
  0
LINE
  5
E1
100
AcDbEntity
  8
0
  6
ByLayer
 62
  256
370
   -1
100
AcDbLine
 10
2.89718032871572
 20
131.67654773559
 11
2.89718032871572
 21
143.0765477355912
  0
ARC
  5
E2
100
AcDbEntity
  8
0
  6
ByLayer
 62
  256
370
   -1
100
AcDbCircle
 10
2.89718032871572
 20
143.9765477355912
 40
0.9000000000000056
100
AcDbArc
 50
270
 51
90
  0
LINE
  5
E3
100
AcDbEntity
  8
0
  6
ByLayer
 62
  256
370
   -1
100
AcDbLine
 10
2.89718032871572
 20
144.8765477355912
 11
2.89718032871572
 21
149.3765477355911
  0
ARC
  5
E4
100
AcDbEntity
  8
0
  6
ByLayer
 62
  256
370
   -1
100
AcDbCircle
 10
5.89718032871572
 20
149.3765477355911
 40
2.999999999999996
100
AcDbArc
 50
89.99999999999939
 51
180
  0
LINE
  5
E5
100
AcDbEntity
  8
0
  6
ByLayer
 62
  256
370
   -1
100
AcDbLine
 10
5.89718032871572
 20
152.3765477355911
 11
17.99718032871574
 21
152.3765477355912
  0
ARC
  5
E6
100
AcDbEntity
  8
0
  6
ByLayer
 62
  256
370
   -1
100
AcDbCircle
 10
17.99718032871574
 20
149.3765477355911
 40
3.000000000000056
100
AcDbArc
 50
359.9999999999993
 51
89.99999999999945
  0
LINE
  5
E7
100
AcDbEntity
  8
0
  6
ByLayer
 62
  256
370
   -1
100
AcDbLine
 10
20.99718032871574
 20
149.3765477355911
 11
20.99718032871574
 21
143.9765477355912
  0
ARC
  5
E8
100
AcDbEntity
  8
0
  6
ByLayer
 62
  256
370
   -1
100
AcDbCircle
 10
21.89718032871572
 20
143.9765477355912
 40
0.8999999999999985
100
AcDbArc
 50
180
 51
0
  0
LINE
  5
E9
100
AcDbEntity
  8
0
  6
ByLayer
 62
  256
370
   -1
100
AcDbLine
 10
22.7971803287157
 20
143.9765477355912
 11
22.79718032871581
 21
149.3765477355913
  0
ARC
  5
EA
100
AcDbEntity
  8
0
  6
ByLayer
 62
  256
370
   -1
100
AcDbCircle
 10
25.7971803287157
 20
149.3765477355912
 40
2.999999999999985
100
AcDbArc
 50
89.99999999999973
 51
179.9999999999997
  0
ARC
  5
EB
100
AcDbEntity
  8
0
  6
ByLayer
 62
  256
370
   -1
100
AcDbCircle
 10
25.79718032871581
 20
125.3765477355912
 40
3.000000000000021
100
AcDbArc
 50
179.9999999999998
 51
269.9999999999998
  0
LINE
  5
EC
100
AcDbEntity
  8
0
  6
ByLayer
 62
  256
370
   -1
100
AcDbLine
 10
22.7971803287157
 20
125.3765477355912
 11
22.7971803287157
 21
130.7765477355912
  0
ARC
  5
ED
100
AcDbEntity
  8
0
  6
ByLayer
 62
  256
370
   -1
100
AcDbCircle
 10
21.89718032871572
 20
130.7765477355912
 40
0.8999999999999985
100
AcDbArc
 50
0
 51
180
  0
LINE
  5
EE
100
AcDbEntity
  8
0
  6
ByLayer
 62
  256
370
   -1
100
AcDbLine
 10
20.99718032871574
 20
130.7765477355912
 11
20.99718032871574
 21
125.3765477355911
  0
ARC
  5
EF
100
AcDbEntity
  8
0
  6
ByLayer
 62
  256
370
   -1
100
AcDbCircle
 10
17.99718032871574
 20
125.3765477355912
 40
3.000000000000014
100
AcDbArc
 50
269.9999999999998
 51
359.9999999999998
  0
LINE
  5
F0
100
AcDbEntity
  8
0
  6
ByLayer
 62
  256
370
   -1
100
AcDbLine
 10
17.99718032871574
 20
122.3765477355911
 11
5.89718032871572
 21
122.3765477355911
  0
LINE
  5
F1
100
AcDbEntity
  8
0
  6
ByLayer
 62
  256
370
   -1
100
AcDbLine
 10
25.7971803287157
 20
152.3765477355912
 11
206.7546423517116
 21
152.3765477355912
  0
LINE
  5
F2
100
AcDbEntity
  8
0
  6
ByLayer
 62
  256
370
   -1
100
AcDbLine
 10
25.79718032871581
 20
122.3765477355912
 11
206.7546423517116
 21
122.3765477355911
  0
LINE
  5
F3
100
AcDbEntity
  8
0
  6
CONTINUOUS
 62
  255
370
   25
100
AcDbLine
 10
2.944788469400123
 20
36.30198096400006
 11
19
 21
32.00000000000001
  0
LINE
  5
F4
100
AcDbEntity
  8
0
  6
CONTINUOUS
 62
  255
370
   25
100
AcDbLine
 10
19
 20
52.99555495780005
 11
2.944788469400123
 21
48.69357399379999
  0
ARC
  5
F5
100
AcDbEntity
  8
0
  6
CONTINUOUS
 62
  255
370
   25
100
AcDbCircle
 10
3.72124560470013
 20
45.79579651500001
 40
3
100
AcDbArc
 50
104.999999999998
 51
180
  0
LINE
  5
F6
100
AcDbEntity
  8
0
  6
CONTINUOUS
 62
  255
370
   25
100
AcDbLine
 10
0.7212456046999591
 20
45.79579651500001
 11
0.7212456046999591
 21
39.19975844280004
  0
ARC
  5
F7
100
AcDbEntity
  8
0
  6
CONTINUOUS
 62
  255
370
   25
100
AcDbCircle
 10
3.72124560470013
 20
39.19975844280004
 40
3.000000000000001
100
AcDbArc
 50
180
 51
255.000000000002
  0
CIRCLE
  5
F8
100
AcDbEntity
  8
0
  6
CONTINUOUS
 62
  256
370
   -1
100
AcDbCircle
 10
14.62124560469993
 20
48.19777747890004
 40
0.7999999999999921
  0
CIRCLE
  5
F9
100
AcDbEntity
  8
0
  6
CONTINUOUS
 62
  256
370
   -1
100
AcDbCircle
 10
14.62124560469993
 20
36.79777747890001
 40
0.8000000000181616
  0
LINE
  5
FA
100
AcDbEntity
  8
0
  6
CONTINUOUS
 62
  256
370
   -1
100
AcDbLine
 10
15.42114520215299
 20
48.18510333220556
 11
16.39353776717593
 21
48.16969609103058
  0
LINE
  5
FB
100
AcDbEntity
  8
0
  6
CONTINUOUS
 62
  256
370
   -1
100
AcDbLine
 10
17.86977374212378
 20
46.66988434580612
 11
17.86977374212378
 21
38.32567061199394
  0
ARC
  5
FC
100
AcDbEntity
  8
0
  6
CONTINUOUS
 62
  256
370
   -1
100
AcDbCircle
 10
16.36977374212378
 20
46.66988434580612
 40
1.5
100
AcDbArc
 50
0
 51
89.09224313106944
  0
LINE
  5
FD
100
AcDbEntity
  8
0
  6
CONTINUOUS
 62
  256
370
   -1
100
AcDbLine
 10
16.39353776717593
 20
36.82585886676947
 11
15.42114520217114
 21
36.81045162559477
  0
ARC
  5
FE
100
AcDbEntity
  8
0
  6
CONTINUOUS
 62
  256
370
   -1
100
AcDbCircle
 10
16.36977374212378
 20
38.32567061199394
 40
1.5
100
AcDbArc
 50
270.9077568689306
 51
0
  0
CIRCLE
  5
FF
100
AcDbEntity
  8
0
  6
CONTINUOUS
 62
  256
370
   -1
100
AcDbCircle
 10
22.17822661641599
 20
48.19777747890004
 40
0.7999999999999921
  0
CIRCLE
  5
100
100
AcDbEntity
  8
0
  6
CONTINUOUS
 62
  256
370
   -1
100
AcDbCircle
 10
22.17822661641599
 20
36.79777747890001
 40
0.8000000000181616
  0
LINE
  5
101
100
AcDbEntity
  8
0
  6
CONTINUOUS
 62
  256
370
   -1
100
AcDbLine
 10
22.97812621386905
 20
48.18510333220556
 11
23.95051877889198
 21
48.16969609103058
  0
LINE
  5
102
100
AcDbEntity
  8
0
  6
CONTINUOUS
 62
  256
370
   -1
100
AcDbLine
 10
25.42675475383984
 20
46.66988434580612
 11
25.42675475383984
 21
38.32567061199394
  0
ARC
  5
103
100
AcDbEntity
  8
0
  6
CONTINUOUS
 62
  256
370
   -1
100
AcDbCircle
 10
23.92675475383984
 20
46.66988434580612
 40
1.5
100
AcDbArc
 50
0
 51
89.09224313106944
  0
LINE
  5
104
100
AcDbEntity
  8
0
  6
CONTINUOUS
 62
  256
370
   -1
100
AcDbLine
 10
23.95051877889198
 20
36.82585886676947
 11
22.9781262138872
 21
36.81045162559477
  0
ARC
  5
105
100
AcDbEntity
  8
0
  6
CONTINUOUS
 62
  256
370
   -1
100
AcDbCircle
 10
23.92675475383984
 20
38.32567061199394
 40
1.5
100
AcDbArc
 50
270.9077568689306
 51
0
  0
CIRCLE
  5
106
100
AcDbEntity
  8
0
  6
CONTINUOUS
 62
  256
370
   -1
100
AcDbCircle
 10
29.73520762813204
 20
48.19777747890004
 40
0.7999999999999921
  0
CIRCLE
  5
107
100
AcDbEntity
  8
0
  6
CONTINUOUS
 62
  256
370
   -1
100
AcDbCircle
 10
29.73520762813204
 20
36.79777747890001
 40
0.8000000000181616
  0
LINE
  5
108
100
AcDbEntity
  8
0
  6
CONTINUOUS
 62
  256
370
   -1
100
AcDbLine
 10
30.5351072255851
 20
48.18510333220556
 11
31.50749979060805
 21
48.16969609103058
  0
LINE
  5
109
100
AcDbEntity
  8
0
  6
CONTINUOUS
 62
  256
370
   -1
100
AcDbLine
 10
32.9837357655559
 20
46.66988434580612
 11
32.9837357655559
 21
38.32567061199394
  0
ARC
  5
10A
100
AcDbEntity
  8
0
  6
CONTINUOUS
 62
  256
370
   -1
100
AcDbCircle
 10
31.48373576555591
 20
46.66988434580612
 40
1.5
100
AcDbArc
 50
0
 51
89.09224313106944
  0
LINE
  5
10B
100
AcDbEntity
  8
0
  6
CONTINUOUS
 62
  256
370
   -1
100
AcDbLine
 10
31.50749979060805
 20
36.82585886676947
 11
30.53510722560327
 21
36.81045162559477
  0
ARC
  5
10C
100
AcDbEntity
  8
0
  6
CONTINUOUS
 62
  256
370
   -1
100
AcDbCircle
 10
31.48373576555591
 20
38.32567061199394
 40
1.5
100
AcDbArc
 50
270.9077568689306
 51
0
  0
CIRCLE
  5
10D
100
AcDbEntity
  8
0
  6
CONTINUOUS
 62
  256
370
   -1
100
AcDbCircle
 10
37.29218863984812
 20
48.19777747890004
 40
0.7999999999999921
  0
CIRCLE
  5
10E
100
AcDbEntity
  8
0
  6
CONTINUOUS
 62
  256
370
   -1
100
AcDbCircle
 10
37.29218863984812
 20
36.79777747890001
 40
0.8000000000181616
  0
LINE
  5
10F
100
AcDbEntity
  8
0
  6
CONTINUOUS
 62
  256
370
   -1
100
AcDbLine
 10
38.09208823730117
 20
48.18510333220556
 11
39.06448080232411
 21
48.16969609103058
  0
LINE
  5
110
100
AcDbEntity
  8
0
  6
CONTINUOUS
 62
  256
370
   -1
100
AcDbLine
 10
40.54071677727196
 20
46.66988434580612
 11
40.54071677727196
 21
38.32567061199394
  0
ARC
  5
111
100
AcDbEntity
  8
0
  6
CONTINUOUS
 62
  256
370
   -1
100
AcDbCircle
 10
39.04071677727198
 20
46.66988434580612
 40
1.5
100
AcDbArc
 50
0
 51
89.09224313106944
  0
LINE
  5
112
100
AcDbEntity
  8
0
  6
CONTINUOUS
 62
  256
370
   -1
100
AcDbLine
 10
39.06448080232411
 20
36.82585886676947
 11
38.09208823731933
 21
36.81045162559477
  0
ARC
  5
113
100
AcDbEntity
  8
0
  6
CONTINUOUS
 62
  256
370
   -1
100
AcDbCircle
 10
39.04071677727198
 20
38.32567061199394
 40
1.5
100
AcDbArc
 50
270.9077568689306
 51
0
  0
CIRCLE
  5
114
100
AcDbEntity
  8
0
  6
CONTINUOUS
 62
  256
370
   -1
100
AcDbCircle
 10
44.84916965156416
 20
48.19777747890004
 40
0.7999999999999921
  0
CIRCLE
  5
115
100
AcDbEntity
  8
0
  6
CONTINUOUS
 62
  256
370
   -1
100
AcDbCircle
 10
44.84916965156416
 20
36.79777747890001
 40
0.8000000000181616
  0
LINE
  5
116
100
AcDbEntity
  8
0
  6
CONTINUOUS
 62
  256
370
   -1
100
AcDbLine
 10
45.64906924901721
 20
48.18510333220556
 11
46.62146181404015
 21
48.16969609103058
  0
LINE
  5
117
100
AcDbEntity
  8
0
  6
CONTINUOUS
 62
  256
370
   -1
100
AcDbLine
 10
48.09769778898802
 20
46.66988434580612
 11
48.09769778898802
 21
38.32567061199394
  0
ARC
  5
118
100
AcDbEntity
  8
0
  6
CONTINUOUS
 62
  256
370
   -1
100
AcDbCircle
 10
46.59769778898802
 20
46.66988434580612
 40
1.5
100
AcDbArc
 50
0
 51
89.09224313106944
  0
LINE
  5
119
100
AcDbEntity
  8
0
  6
CONTINUOUS
 62
  256
370
   -1
100
AcDbLine
 10
46.62146181404015
 20
36.82585886676947
 11
45.64906924903539
 21
36.81045162559477
  0
ARC
  5
11A
100
AcDbEntity
  8
0
  6
CONTINUOUS
 62
  256
370
   -1
100
AcDbCircle
 10
46.59769778898802
 20
38.32567061199394
 40
1.5
100
AcDbArc
 50
270.9077568689306
 51
0
  0
CIRCLE
  5
11B
100
AcDbEntity
  8
0
  6
CONTINUOUS
 62
  256
370
   -1
100
AcDbCircle
 10
52.40615066328023
 20
48.19777747890004
 40
0.7999999999999921
  0
CIRCLE
  5
11C
100
AcDbEntity
  8
0
  6
CONTINUOUS
 62
  256
370
   -1
100
AcDbCircle
 10
52.40615066328023
 20
36.79777747890001
 40
0.8000000000181616
  0
LINE
  5
11D
100
AcDbEntity
  8
0
  6
CONTINUOUS
 62
  256
370
   -1
100
AcDbLine
 10
53.20605026073326
 20
48.18510333220556
 11
54.17844282575621
 21
48.16969609103058
  0
LINE
  5
11E
100
AcDbEntity
  8
0
  6
CONTINUOUS
 62
  256
370
   -1
100
AcDbLine
 10
55.65467880070406
 20
46.66988434580612
 11
55.65467880070406
 21
38.32567061199394
  0
ARC
  5
11F
100
AcDbEntity
  8
0
  6
CONTINUOUS
 62
  256
370
   -1
100
AcDbCircle
 10
54.15467880070406
 20
46.66988434580612
 40
1.5
100
AcDbArc
 50
0
 51
89.09224313106944
  0
LINE
  5
120
100
AcDbEntity
  8
0
  6
CONTINUOUS
 62
  256
370
   -1
100
AcDbLine
 10
54.17844282575621
 20
36.82585886676947
 11
53.20605026075144
 21
36.81045162559477
  0
ARC
  5
121
100
AcDbEntity
  8
0
  6
CONTINUOUS
 62
  256
370
   -1
100
AcDbCircle
 10
54.15467880070406
 20
38.32567061199394
 40
1.5
100
AcDbArc
 50
270.9077568689306
 51
0
  0
CIRCLE
  5
122
100
AcDbEntity
  8
0
  6
CONTINUOUS
 62
  256
370
   -1
100
AcDbCircle
 10
59.96313167499628
 20
48.19777747890004
 40
0.7999999999999921
  0
CIRCLE
  5
123
100
AcDbEntity
  8
0
  6
CONTINUOUS
 62
  256
370
   -1
100
AcDbCircle
 10
59.96313167499628
 20
36.79777747890001
 40
0.8000000000181616
  0
LINE
  5
124
100
AcDbEntity
  8
0
  6
CONTINUOUS
 62
  256
370
   -1
100
AcDbLine
 10
60.76303127244934
 20
48.18510333220556
 11
61.73542383747228
 21
48.16969609103058
  0
LINE
  5
125
100
AcDbEntity
  8
0
  6
CONTINUOUS
 62
  256
370
   -1
100
AcDbLine
 10
63.21165981242015
 20
46.66988434580612
 11
63.21165981242015
 21
38.32567061199394
  0
ARC
  5
126
100
AcDbEntity
  8
0
  6
CONTINUOUS
 62
  256
370
   -1
100
AcDbCircle
 10
61.71165981242012
 20
46.66988434580612
 40
1.5
100
AcDbArc
 50
0
 51
89.09224313106944
  0
LINE
  5
127
100
AcDbEntity
  8
0
  6
CONTINUOUS
 62
  256
370
   -1
100
AcDbLine
 10
61.73542383747228
 20
36.82585886676947
 11
60.7630312724675
 21
36.81045162559477
  0
ARC
  5
128
100
AcDbEntity
  8
0
  6
CONTINUOUS
 62
  256
370
   -1
100
AcDbCircle
 10
61.71165981242012
 20
38.32567061199394
 40
1.5
100
AcDbArc
 50
270.9077568689306
 51
0
  0
CIRCLE
  5
129
100
AcDbEntity
  8
0
  6
CONTINUOUS
 62
  256
370
   -1
100
AcDbCircle
 10
67.52011268671235
 20
48.19777747890004
 40
0.7999999999999921
  0
CIRCLE
  5
12A
100
AcDbEntity
  8
0
  6
CONTINUOUS
 62
  256
370
   -1
100
AcDbCircle
 10
67.52011268671235
 20
36.79777747890001
 40
0.8000000000181616
  0
LINE
  5
12B
100
AcDbEntity
  8
0
  6
CONTINUOUS
 62
  256
370
   -1
100
AcDbLine
 10
68.3200122841654
 20
48.18510333220556
 11
69.29240484918834
 21
48.16969609103058
  0
LINE
  5
12C
100
AcDbEntity
  8
0
  6
CONTINUOUS
 62
  256
370
   -1
100
AcDbLine
 10
70.7686408241362
 20
46.66988434580612
 11
70.7686408241362
 21
38.32567061199394
  0
ARC
  5
12D
100
AcDbEntity
  8
0
  6
CONTINUOUS
 62
  256
370
   -1
100
AcDbCircle
 10
69.26864082413618
 20
46.66988434580612
 40
1.5
100
AcDbArc
 50
0
 51
89.09224313106944
  0
LINE
  5
12E
100
AcDbEntity
  8
0
  6
CONTINUOUS
 62
  256
370
   -1
100
AcDbLine
 10
69.29240484918834
 20
36.82585886676947
 11
68.32001228418356
 21
36.81045162559477
  0
ARC
  5
12F
100
AcDbEntity
  8
0
  6
CONTINUOUS
 62
  256
370
   -1
100
AcDbCircle
 10
69.26864082413618
 20
38.32567061199394
 40
1.5
100
AcDbArc
 50
270.9077568689306
 51
0
  0
CIRCLE
  5
130
100
AcDbEntity
  8
0
  6
CONTINUOUS
 62
  256
370
   -1
100
AcDbCircle
 10
75.0770936984284
 20
48.19777747890004
 40
0.7999999999999921
  0
CIRCLE
  5
131
100
AcDbEntity
  8
0
  6
CONTINUOUS
 62
  256
370
   -1
100
AcDbCircle
 10
75.0770936984284
 20
36.79777747890001
 40
0.8000000000181616
  0
LINE
  5
132
100
AcDbEntity
  8
0
  6
CONTINUOUS
 62
  256
370
   -1
100
AcDbLine
 10
75.87699329588145
 20
48.18510333220556
 11
76.84938586090439
 21
48.16969609103058
  0
LINE
  5
133
100
AcDbEntity
  8
0
  6
CONTINUOUS
 62
  256
370
   -1
100
AcDbLine
 10
78.32562183585225
 20
46.66988434580612
 11
78.32562183585225
 21
38.32567061199394
  0
ARC
  5
134
100
AcDbEntity
  8
0
  6
CONTINUOUS
 62
  256
370
   -1
100
AcDbCircle
 10
76.82562183585225
 20
46.66988434580612
 40
1.5
100
AcDbArc
 50
0
 51
89.09224313106944
  0
LINE
  5
135
100
AcDbEntity
  8
0
  6
CONTINUOUS
 62
  256
370
   -1
100
AcDbLine
 10
76.84938586090439
 20
36.82585886676947
 11
75.87699329589961
 21
36.81045162559477
  0
ARC
  5
136
100
AcDbEntity
  8
0
  6
CONTINUOUS
 62
  256
370
   -1
100
AcDbCircle
 10
76.82562183585225
 20
38.32567061199394
 40
1.5
100
AcDbArc
 50
270.9077568689306
 51
0
  0
CIRCLE
  5
137
100
AcDbEntity
  8
0
  6
CONTINUOUS
 62
  256
370
   -1
100
AcDbCircle
 10
82.63407471014443
 20
48.19777747890004
 40
0.7999999999999921
  0
CIRCLE
  5
138
100
AcDbEntity
  8
0
  6
CONTINUOUS
 62
  256
370
   -1
100
AcDbCircle
 10
82.63407471014443
 20
36.79777747890001
 40
0.8000000000181616
  0
LINE
  5
139
100
AcDbEntity
  8
0
  6
CONTINUOUS
 62
  256
370
   -1
100
AcDbLine
 10
83.43397430759748
 20
48.18510333220556
 11
84.40636687262045
 21
48.16969609103058
  0
LINE
  5
13A
100
AcDbEntity
  8
0
  6
CONTINUOUS
 62
  256
370
   -1
100
AcDbLine
 10
85.88260284756831
 20
46.66988434580612
 11
85.88260284756831
 21
38.32567061199394
  0
ARC
  5
13B
100
AcDbEntity
  8
0
  6
CONTINUOUS
 62
  256
370
   -1
100
AcDbCircle
 10
84.38260284756831
 20
46.66988434580612
 40
1.5
100
AcDbArc
 50
0
 51
89.09224313106944
  0
LINE
  5
13C
100
AcDbEntity
  8
0
  6
CONTINUOUS
 62
  256
370
   -1
100
AcDbLine
 10
84.40636687262045
 20
36.82585886676947
 11
83.43397430761567
 21
36.81045162559477
  0
ARC
  5
13D
100
AcDbEntity
  8
0
  6
CONTINUOUS
 62
  256
370
   -1
100
AcDbCircle
 10
84.38260284756831
 20
38.32567061199394
 40
1.5
100
AcDbArc
 50
270.9077568689306
 51
0
  0
CIRCLE
  5
13E
100
AcDbEntity
  8
0
  6
CONTINUOUS
 62
  256
370
   -1
100
AcDbCircle
 10
90.19105572186052
 20
48.19777747890004
 40
0.7999999999999921
  0
CIRCLE
  5
13F
100
AcDbEntity
  8
0
  6
CONTINUOUS
 62
  256
370
   -1
100
AcDbCircle
 10
90.19105572186052
 20
36.79777747890001
 40
0.8000000000181616
  0
LINE
  5
140
100
AcDbEntity
  8
0
  6
CONTINUOUS
 62
  256
370
   -1
100
AcDbLine
 10
90.99095531931357
 20
48.18510333220556
 11
91.96334788433649
 21
48.16969609103058
  0
LINE
  5
141
100
AcDbEntity
  8
0
  6
CONTINUOUS
 62
  256
370
   -1
100
AcDbLine
 10
93.43958385928434
 20
46.66988434580612
 11
93.43958385928434
 21
38.32567061199394
  0
ARC
  5
142
100
AcDbEntity
  8
0
  6
CONTINUOUS
 62
  256
370
   -1
100
AcDbCircle
 10
91.93958385928437
 20
46.66988434580612
 40
1.5
100
AcDbArc
 50
0
 51
89.09224313106944
  0
LINE
  5
143
100
AcDbEntity
  8
0
  6
CONTINUOUS
 62
  256
370
   -1
100
AcDbLine
 10
91.96334788433649
 20
36.82585886676947
 11
90.99095531933173
 21
36.81045162559477
  0
ARC
  5
144
100
AcDbEntity
  8
0
  6
CONTINUOUS
 62
  256
370
   -1
100
AcDbCircle
 10
91.93958385928437
 20
38.32567061199394
 40
1.5
100
AcDbArc
 50
270.9077568689306
 51
0
  0
CIRCLE
  5
145
100
AcDbEntity
  8
0
  6
CONTINUOUS
 62
  256
370
   -1
100
AcDbCircle
 10
97.74803673357658
 20
48.19777747890004
 40
0.7999999999999921
  0
CIRCLE
  5
146
100
AcDbEntity
  8
0
  6
CONTINUOUS
 62
  256
370
   -1
100
AcDbCircle
 10
97.74803673357658
 20
36.79777747890001
 40
0.8000000000181616
  0
LINE
  5
147
100
AcDbEntity
  8
0
  6
CONTINUOUS
 62
  256
370
   -1
100
AcDbLine
 10
98.54793633102963
 20
48.18510333220556
 11
99.52032889605256
 21
48.16969609103058
  0
LINE
  5
148
100
AcDbEntity
  8
0
  6
CONTINUOUS
 62
  256
370
   -1
100
AcDbLine
 10
100.9965648710004
 20
46.66988434580612
 11
100.9965648710004
 21
38.32567061199394
  0
ARC
  5
149
100
AcDbEntity
  8
0
  6
CONTINUOUS
 62
  256
370
   -1
100
AcDbCircle
 10
99.49656487100036
 20
46.66988434580612
 40
1.5
100
AcDbArc
 50
0
 51
89.09224313106944
  0
LINE
  5
14A
100
AcDbEntity
  8
0
  6
CONTINUOUS
 62
  256
370
   -1
100
AcDbLine
 10
99.52032889605256
 20
36.82585886676947
 11
98.54793633104779
 21
36.81045162559477
  0
ARC
  5
14B
100
AcDbEntity
  8
0
  6
CONTINUOUS
 62
  256
370
   -1
100
AcDbCircle
 10
99.49656487100036
 20
38.32567061199394
 40
1.5
100
AcDbArc
 50
270.9077568689306
 51
0
  0
CIRCLE
  5
14C
100
AcDbEntity
  8
0
  6
CONTINUOUS
 62
  256
370
   -1
100
AcDbCircle
 10
105.3050177452927
 20
48.19777747890004
 40
0.7999999999999921
  0
CIRCLE
  5
14D
100
AcDbEntity
  8
0
  6
CONTINUOUS
 62
  256
370
   -1
100
AcDbCircle
 10
105.3050177452927
 20
36.79777747890001
 40
0.8000000000181616
  0
LINE
  5
14E
100
AcDbEntity
  8
0
  6
CONTINUOUS
 62
  256
370
   -1
100
AcDbLine
 10
106.1049173427457
 20
48.18510333220556
 11
107.0773099077686
 21
48.16969609103058
  0
LINE
  5
14F
100
AcDbEntity
  8
0
  6
CONTINUOUS
 62
  256
370
   -1
100
AcDbLine
 10
108.5535458827165
 20
46.66988434580612
 11
108.5535458827165
 21
38.32567061199394
  0
ARC
  5
150
100
AcDbEntity
  8
0
  6
CONTINUOUS
 62
  256
370
   -1
100
AcDbCircle
 10
107.0535458827165
 20
46.66988434580612
 40
1.5
100
AcDbArc
 50
0
 51
89.09224313106944
  0
LINE
  5
151
100
AcDbEntity
  8
0
  6
CONTINUOUS
 62
  256
370
   -1
100
AcDbLine
 10
107.0773099077686
 20
36.82585886676947
 11
106.1049173427638
 21
36.81045162559477
  0
ARC
  5
152
100
AcDbEntity
  8
0
  6
CONTINUOUS
 62
  256
370
   -1
100
AcDbCircle
 10
107.0535458827165
 20
38.32567061199394
 40
1.5
100
AcDbArc
 50
270.9077568689306
 51
0
  0
CIRCLE
  5
153
100
AcDbEntity
  8
0
  6
CONTINUOUS
 62
  256
370
   -1
100
AcDbCircle
 10
112.8619987570087
 20
48.19777747890004
 40
0.7999999999999921
  0
CIRCLE
  5
154
100
AcDbEntity
  8
0
  6
CONTINUOUS
 62
  256
370
   -1
100
AcDbCircle
 10
112.8619987570087
 20
36.79777747890001
 40
0.8000000000181616
  0
LINE
  5
155
100
AcDbEntity
  8
0
  6
CONTINUOUS
 62
  256
370
   -1
100
AcDbLine
 10
113.6618983544617
 20
48.18510333220556
 11
114.6342909194847
 21
48.16969609103058
  0
LINE
  5
156
100
AcDbEntity
  8
0
  6
CONTINUOUS
 62
  256
370
   -1
100
AcDbLine
 10
116.1105268944325
 20
46.66988434580612
 11
116.1105268944325
 21
38.32567061199394
  0
ARC
  5
157
100
AcDbEntity
  8
0
  6
CONTINUOUS
 62
  256
370
   -1
100
AcDbCircle
 10
114.6105268944325
 20
46.66988434580612
 40
1.5
100
AcDbArc
 50
0
 51
89.09224313106944
  0
LINE
  5
158
100
AcDbEntity
  8
0
  6
CONTINUOUS
 62
  256
370
   -1
100
AcDbLine
 10
114.6342909194847
 20
36.82585886676947
 11
113.66189835448
 21
36.81045162559477
  0
ARC
  5
159
100
AcDbEntity
  8
0
  6
CONTINUOUS
 62
  256
370
   -1
100
AcDbCircle
 10
114.6105268944325
 20
38.32567061199394
 40
1.5
100
AcDbArc
 50
270.9077568689306
 51
0
  0
CIRCLE
  5
15A
100
AcDbEntity
  8
0
  6
CONTINUOUS
 62
  256
370
   -1
100
AcDbCircle
 10
120.4189797687248
 20
48.19777747890004
 40
0.7999999999999921
  0
CIRCLE
  5
15B
100
AcDbEntity
  8
0
  6
CONTINUOUS
 62
  256
370
   -1
100
AcDbCircle
 10
120.4189797687248
 20
36.79777747890001
 40
0.8000000000181616
  0
LINE
  5
15C
100
AcDbEntity
  8
0
  6
CONTINUOUS
 62
  256
370
   -1
100
AcDbLine
 10
121.2188793661779
 20
48.18510333220556
 11
122.1912719312007
 21
48.16969609103058
  0
LINE
  5
15D
100
AcDbEntity
  8
0
  6
CONTINUOUS
 62
  256
370
   -1
100
AcDbLine
 10
123.6675079061487
 20
46.66988434580612
 11
123.6675079061487
 21
38.32567061199394
  0
ARC
  5
15E
100
AcDbEntity
  8
0
  6
CONTINUOUS
 62
  256
370
   -1
100
AcDbCircle
 10
122.1675079061487
 20
46.66988434580612
 40
1.5
100
AcDbArc
 50
0
 51
89.09224313106944
  0
LINE
  5
15F
100
AcDbEntity
  8
0
  6
CONTINUOUS
 62
  256
370
   -1
100
AcDbLine
 10
122.1912719312007
 20
36.82585886676947
 11
121.2188793661958
 21
36.81045162559477
  0
ARC
  5
160
100
AcDbEntity
  8
0
  6
CONTINUOUS
 62
  256
370
   -1
100
AcDbCircle
 10
122.1675079061487
 20
38.32567061199394
 40
1.5
100
AcDbArc
 50
270.9077568689306
 51
0
  0
CIRCLE
  5
161
100
AcDbEntity
  8
0
  6
CONTINUOUS
 62
  256
370
   -1
100
AcDbCircle
 10
127.9759607804408
 20
48.19777747890004
 40
0.7999999999999921
  0
CIRCLE
  5
162
100
AcDbEntity
  8
0
  6
CONTINUOUS
 62
  256
370
   -1
100
AcDbCircle
 10
127.9759607804408
 20
36.79777747890001
 40
0.8000000000181616
  0
LINE
  5
163
100
AcDbEntity
  8
0
  6
CONTINUOUS
 62
  256
370
   -1
100
AcDbLine
 10
128.7758603778938
 20
48.18510333220556
 11
129.7482529429168
 21
48.16969609103058
  0
LINE
  5
164
100
AcDbEntity
  8
0
  6
CONTINUOUS
 62
  256
370
   -1
100
AcDbLine
 10
131.2244889178646
 20
46.66988434580612
 11
131.2244889178646
 21
38.32567061199394
  0
ARC
  5
165
100
AcDbEntity
  8
0
  6
CONTINUOUS
 62
  256
370
   -1
100
AcDbCircle
 10
129.7244889178646
 20
46.66988434580612
 40
1.5
100
AcDbArc
 50
0
 51
89.09224313106944
  0
LINE
  5
166
100
AcDbEntity
  8
0
  6
CONTINUOUS
 62
  256
370
   -1
100
AcDbLine
 10
129.7482529429168
 20
36.82585886676947
 11
128.7758603779121
 21
36.81045162559477
  0
ARC
  5
167
100
AcDbEntity
  8
0
  6
CONTINUOUS
 62
  256
370
   -1
100
AcDbCircle
 10
129.7244889178646
 20
38.32567061199394
 40
1.5
100
AcDbArc
 50
270.9077568689306
 51
0
  0
CIRCLE
  5
168
100
AcDbEntity
  8
0
  6
CONTINUOUS
 62
  256
370
   -1
100
AcDbCircle
 10
135.5329417921569
 20
48.19777747890004
 40
0.7999999999999921
  0
CIRCLE
  5
169
100
AcDbEntity
  8
0
  6
CONTINUOUS
 62
  256
370
   -1
100
AcDbCircle
 10
135.5329417921569
 20
36.79777747890001
 40
0.8000000000181616
  0
LINE
  5
16A
100
AcDbEntity
  8
0
  6
CONTINUOUS
 62
  256
370
   -1
100
AcDbLine
 10
136.3328413896099
 20
48.18510333220556
 11
137.3052339546329
 21
48.16969609103058
  0
LINE
  5
16B
100
AcDbEntity
  8
0
  6
CONTINUOUS
 62
  256
370
   -1
100
AcDbLine
 10
138.7814699295806
 20
46.66988434580612
 11
138.7814699295806
 21
38.32567061199394
  0
ARC
  5
16C
100
AcDbEntity
  8
0
  6
CONTINUOUS
 62
  256
370
   -1
100
AcDbCircle
 10
137.2814699295806
 20
46.66988434580612
 40
1.5
100
AcDbArc
 50
0
 51
89.09224313106864
  0
LINE
  5
16D
100
AcDbEntity
  8
0
  6
CONTINUOUS
 62
  256
370
   -1
100
AcDbLine
 10
137.3052339546329
 20
36.82585886676947
 11
136.3328413896281
 21
36.81045162559477
  0
ARC
  5
16E
100
AcDbEntity
  8
0
  6
CONTINUOUS
 62
  256
370
   -1
100
AcDbCircle
 10
137.2814699295806
 20
38.32567061199394
 40
1.5
100
AcDbArc
 50
270.9077568689298
 51
0
  0
CIRCLE
  5
16F
100
AcDbEntity
  8
0
  6
CONTINUOUS
 62
  256
370
   -1
100
AcDbCircle
 10
143.0899228038729
 20
48.19777747890004
 40
0.7999999999999921
  0
CIRCLE
  5
170
100
AcDbEntity
  8
0
  6
CONTINUOUS
 62
  256
370
   -1
100
AcDbCircle
 10
143.0899228038729
 20
36.79777747890001
 40
0.8000000000181616
  0
LINE
  5
171
100
AcDbEntity
  8
0
  6
CONTINUOUS
 62
  256
370
   -1
100
AcDbLine
 10
143.8898224013259
 20
48.18510333220556
 11
144.862214966349
 21
48.16969609103058
  0
LINE
  5
172
100
AcDbEntity
  8
0
  6
CONTINUOUS
 62
  256
370
   -1
100
AcDbLine
 10
146.3384509412967
 20
46.66988434580612
 11
146.3384509412967
 21
38.32567061199394
  0
ARC
  5
173
100
AcDbEntity
  8
0
  6
CONTINUOUS
 62
  256
370
   -1
100
AcDbCircle
 10
144.8384509412967
 20
46.66988434580612
 40
1.5
100
AcDbArc
 50
0
 51
89.09224313106864
  0
LINE
  5
174
100
AcDbEntity
  8
0
  6
CONTINUOUS
 62
  256
370
   -1
100
AcDbLine
 10
144.862214966349
 20
36.82585886676947
 11
143.889822401344
 21
36.81045162559477
  0
ARC
  5
175
100
AcDbEntity
  8
0
  6
CONTINUOUS
 62
  256
370
   -1
100
AcDbCircle
 10
144.8384509412967
 20
38.32567061199394
 40
1.5
100
AcDbArc
 50
270.9077568689298
 51
0
  0
LINE
  5
176
100
AcDbEntity
  8
0
  6
CONTINUOUS
 62
  255
370
   25
100
AcDbLine
 10
248.0638488092616
 20
31.89777747889998
 11
248.0638488092616
 21
30.29777747890001
  0
ARC
  5
177
100
AcDbEntity
  8
0
  6
CONTINUOUS
 62
  255
370
   25
100
AcDbCircle
 10
249.8638488092616
 20
30.29777747890001
 40
1.799999999999999
100
AcDbArc
 50
180
 51
270
  0
LINE
  5
178
100
AcDbEntity
  8
0
  6
CONTINUOUS
 62
  255
370
   25
100
AcDbLine
 10
249.8638488092616
 20
28.4977774789
 11
256.2638488092615
 21
28.4977774789
  0
ARC
  5
179
100
AcDbEntity
  8
0
  6
CONTINUOUS
 62
  255
370
   25
100
AcDbCircle
 10
256.2638488092615
 20
30.29777747890001
 40
1.799999999999999
100
AcDbArc
 50
270
 51
0
  0
LINE
  5
17A
100
AcDbEntity
  8
0
  6
CONTINUOUS
 62
  255
370
   25
100
AcDbLine
 10
258.0638488092615
 20
30.29777747890001
 11
258.0638488092616
 21
54.69777747890004
  0
ARC
  5
17B
100
AcDbEntity
  8
0
  6
CONTINUOUS
 62
  255
370
   25
100
AcDbCircle
 10
256.2638488092616
 20
54.69777747890003
 40
1.800000000000005
100
AcDbArc
 50
2.261672555521948e-013
 51
90.0000000000018
  0
LINE
  5
17C
100
AcDbEntity
  8
0
  6
CONTINUOUS
 62
  255
370
   25
100
AcDbLine
 10
256.2638488092616
 20
56.49777747890017
 11
249.8638488092616
 21
56.49777747890017
  0
ARC
  5
17D
100
AcDbEntity
  8
0
  6
CONTINUOUS
 62
  255
370
   25
100
AcDbCircle
 10
249.8638488092616
 20
54.69777747890004
 40
1.799999999999999
100
AcDbArc
 50
90
 51
180
  0
LINE
  5
17E
100
AcDbEntity
  8
0
  6
CONTINUOUS
 62
  255
370
   25
100
AcDbLine
 10
248.0638488092616
 20
54.69777747890004
 11
248.0638488092616
 21
53.09777747890002
  0
LINE
  5
17F
100
AcDbEntity
  8
0
  6
ByLayer
 62
  256
370
   -1
100
AcDbLine
 10
19
 20
52.99555495780005
 11
248.0638488092616
 21
53.09777747890002
  0
LINE
  5
180
100
AcDbEntity
  8
0
  6
ByLayer
 62
  256
370
   -1
100
AcDbLine
 10
248.0638488092616
 20
31.89777747889998
 11
19
 21
32.00000000000001
  0
LINE
  5
181
100
AcDbEntity
  8
0
  6
CONTINUOUS
 62
  255
370
   25
100
AcDbLine
 10
147.3702156839547
 20
62.03514450976162
 11
131.3150041533548
 21
57.73316354576157
  0
ARC
  5
182
100
AcDbEntity
  8
0
  6
CONTINUOUS
 62
  255
370
   25
100
AcDbCircle
 10
130.5385470180549
 20
75.83094102466158
 40
3
100
AcDbArc
 50
75.000000000002
 51
90
  0
LINE
  5
183
100
AcDbEntity
  8
0
  6
CONTINUOUS
 62
  255
370
   25
100
AcDbLine
 10
131.3150041533548
 20
78.72871850356161
 11
147.3702156839547
 21
74.42673753956156
  0
ARC
  5
184
100
AcDbEntity
  8
0
  6
CONTINUOUS
 62
  255
370
   25
100
AcDbCircle
 10
146.5937585486547
 20
71.52896006076158
 40
3
100
AcDbArc
 50
0
 51
75.000000000002
  0
LINE
  5
185
100
AcDbEntity
  8
0
  6
CONTINUOUS
 62
  255
370
   25
100
AcDbLine
 10
149.5937585486549
 20
71.52896006076158
 11
149.5937585486549
 21
64.9329219885616
  0
ARC
  5
186
100
AcDbEntity
  8
0
  6
CONTINUOUS
 62
  255
370
   25
100
AcDbCircle
 10
146.5937585486547
 20
64.9329219885616
 40
3.000000000000001
100
AcDbArc
 50
284.9999999999981
 51
0
  0
CIRCLE
  5
187
100
AcDbEntity
  8
0
  6
CONTINUOUS
 62
  256
370
   -1
100
AcDbCircle
 10
120.5797965252228
 20
73.93094102466161
 40
0.7999999999999921
  0
CIRCLE
  5
188
100
AcDbEntity
  8
0
  6
CONTINUOUS
 62
  256
370
   -1
100
AcDbCircle
 10
120.5797965252228
 20
62.53094102466157
 40
0.8000000000181616
  0
LINE
  5
189
100
AcDbEntity
  8
0
  6
CONTINUOUS
 62
  256
370
   -1
100
AcDbLine
 10
119.7798969277697
 20
73.91826687796716
 11
118.8075043627468
 21
73.90285963679214
  0
LINE
  5
18A
100
AcDbEntity
  8
0
  6
CONTINUOUS
 62
  256
370
   -1
100
AcDbLine
 10
117.3312683877989
 20
72.40304789156768
 11
117.3312683877989
 21
64.0588341577555
  0
ARC
  5
18B
100
AcDbEntity
  8
0
  6
CONTINUOUS
 62
  256
370
   -1
100
AcDbCircle
 10
118.8312683877989
 20
72.40304789156768
 40
1.5
100
AcDbArc
 50
90.90775686893056
 51
180
  0
LINE
  5
18C
100
AcDbEntity
  8
0
  6
CONTINUOUS
 62
  256
370
   -1
100
AcDbLine
 10
118.8075043627468
 20
62.55902241253104
 11
119.7798969277516
 21
62.54361517135631
  0
ARC
  5
18D
100
AcDbEntity
  8
0
  6
CONTINUOUS
 62
  256
370
   -1
100
AcDbCircle
 10
118.8312683877989
 20
64.0588341577555
 40
1.5
100
AcDbArc
 50
180
 51
269.0922431310694
  0
LINE
  5
18E
100
AcDbEntity
  8
0
  6
CONTINUOUS
 62
  255
370
   25
100
AcDbLine
 10
12.06754459497102
 20
57.66977278035827
 11
12.06754459497102
 21
56.06977278035831
  0
ARC
  5
18F
100
AcDbEntity
  8
0
  6
CONTINUOUS
 62
  255
370
   25
100
AcDbCircle
 10
10.267544594971
 20
56.06977278035831
 40
1.799999999999999
100
AcDbArc
 50
270
 51
0
  0
LINE
  5
190
100
AcDbEntity
  8
0
  6
CONTINUOUS
 62
  255
370
   25
100
AcDbLine
 10
10.267544594971
 20
54.26977278035829
 11
3.86754459497114
 21
54.26977278035829
  0
ARC
  5
191
100
AcDbEntity
  8
0
  6
CONTINUOUS
 62
  255
370
   25
100
AcDbCircle
 10
3.86754459497114
 20
56.06977278035831
 40
1.799999999999999
100
AcDbArc
 50
180
 51
270
  0
LINE
  5
192
100
AcDbEntity
  8
0
  6
CONTINUOUS
 62
  255
370
   25
100
AcDbLine
 10
2.067544594971128
 20
56.06977278035831
 11
2.067544594971011
 21
80.46977278035834
  0
ARC
  5
193
100
AcDbEntity
  8
0
  6
CONTINUOUS
 62
  255
370
   25
100
AcDbCircle
 10
3.867544594971026
 20
80.46977278035834
 40
1.799999999999999
100
AcDbArc
 50
90
 51
180
  0
LINE
  5
194
100
AcDbEntity
  8
0
  6
CONTINUOUS
 62
  255
370
   25
100
AcDbLine
 10
3.867544594971026
 20
82.26977278035847
 11
10.267544594971
 21
82.26977278035847
  0
ARC
  5
195
100
AcDbEntity
  8
0
  6
CONTINUOUS
 62
  255
370
   25
100
AcDbCircle
 10
10.267544594971
 20
80.46977278035834
 40
1.799999999999999
100
AcDbArc
 50
0
 51
90
  0
LINE
  5
196
100
AcDbEntity
  8
0
  6
CONTINUOUS
 62
  255
370
   25
100
AcDbLine
 10
12.06754459497102
 20
80.46977278035834
 11
12.06754459497102
 21
78.86977278035832
  0
LINE
  5
197
100
AcDbEntity
  8
0
  6
ByLayer
 62
  256
370
   -1
100
AcDbLine
 10
12.06754459497102
 20
78.86977278035832
 11
130.5385470180549
 21
78.83094102466158
  0
LINE
  5
198
100
AcDbEntity
  8
0
  6
ByLayer
 62
  256
370
   -1
100
AcDbLine
 10
131.3150041533548
 20
57.73316354576157
 11
12.06754459497102
 21
57.66977278035827
  0
ARC
  5
199
100
AcDbEntity
  8
0
  6
ByLayer
 62
  256
370
   -1
100
AcDbCircle
 10
163
 20
80.00000000000011
 40
5
100
AcDbArc
 50
90
 51
180
  0
LINE
  5
19A
100
AcDbEntity
  8
0
  6
ByLayer
 62
  256
370
   -1
100
AcDbLine
 10
158
 20
80.00000000000011
 11
158
 21
60
  0
ARC
  5
19B
100
AcDbEntity
  8
0
  6
ByLayer
 62
  256
370
   -1
100
AcDbCircle
 10
163
 20
60
 40
5
100
AcDbArc
 50
180
 51
270
  0
ARC
  5
19C
100
AcDbEntity
  8
0
  6
ByLayer
 62
  256
370
   -1
100
AcDbCircle
 10
179
 20
60.25
 40
0.8999999999999914
100
AcDbArc
 50
179.9999999999964
 51
359.9999999999973
  0
LINE
  5
19D
100
AcDbEntity
  8
0
  6
ByLayer
 62
  256
370
   -1
100
AcDbLine
 10
178.1
 20
60.25
 11
178.1
 21
79.75000000000011
  0
ARC
  5
19E
100
AcDbEntity
  8
0
  6
ByLayer
 62
  256
370
   -1
100
AcDbCircle
 10
179
 20
79.75000000000011
 40
0.9000000000000341
100
AcDbArc
 50
359.9999999999964
 51
179.9999999999964
  0
LINE
  5
19F
100
AcDbEntity
  8
0
  6
ByLayer
 62
  256
370
   -1
100
AcDbLine
 10
179.9
 20
79.74999999999989
 11
179.9
 21
60.24999999999989
  0
LINE
  5
1A0
100
AcDbEntity
  8
0
  6
ByLayer
 62
  256
370
   -1
100
AcDbLine
 10
163.1
 20
60.25
 11
163.1
 21
79.75000000000011
  0
ARC
  5
1A1
100
AcDbEntity
  8
0
  6
ByLayer
 62
  256
370
   -1
100
AcDbCircle
 10
164
 20
79.75000000000011
 40
0.9000000000000198
100
AcDbArc
 50
0
 51
180
  0
LINE
  5
1A2
100
AcDbEntity
  8
0
  6
ByLayer
 62
  256
370
   -1
100
AcDbLine
 10
164.9
 20
79.75000000000011
 11
164.9
 21
60.25
  0
ARC
  5
1A3
100
AcDbEntity
  8
0
  6
ByLayer
 62
  256
370
   -1
100
AcDbCircle
 10
164
 20
60.25
 40
0.9000000000000198
100
AcDbArc
 50
180
 51
0
  0
ARC
  5
1A4
100
AcDbEntity
  8
0
  6
ByLayer
 62
  256
370
   -1
100
AcDbCircle
 10
225.3394898856643
 20
60
 40
5
100
AcDbArc
 50
270
 51
0
  0
LINE
  5
1A5
100
AcDbEntity
  8
0
  6
ByLayer
 62
  256
370
   -1
100
AcDbLine
 10
230.3394898856642
 20
60
 11
230.3394898856642
 21
80.00000000000011
  0
ARC
  5
1A6
100
AcDbEntity
  8
0
  6
ByLayer
 62
  256
370
   -1
100
AcDbCircle
 10
225.3394898856643
 20
80.00000000000011
 40
5
100
AcDbArc
 50
0
 51
90
  0
ARC
  5
1A7
100
AcDbEntity
  8
0
  6
ByLayer
 62
  256
370
   -1
100
AcDbCircle
 10
224.3394898856643
 20
60.25
 40
0.9000000000000341
100
AcDbArc
 50
179.9999999999964
 51
359.9999999999973
  0
LINE
  5
1A8
100
AcDbEntity
  8
0
  6
ByLayer
 62
  256
370
   -1
100
AcDbLine
 10
223.4394898856643
 20
60.25
 11
223.4394898856643
 21
79.75000000000011
  0
ARC
  5
1A9
100
AcDbEntity
  8
0
  6
ByLayer
 62
  256
370
   -1
100
AcDbCircle
 10
224.3394898856643
 20
79.75000000000011
 40
0.8999999999999772
100
AcDbArc
 50
0
 51
180
  0
LINE
  5
1AA
100
AcDbEntity
  8
0
  6
ByLayer
 62
  256
370
   -1
100
AcDbLine
 10
225.2394898856644
 20
79.75000000000011
 11
225.2394898856644
 21
60.24999999999989
  0
ARC
  5
1AB
100
AcDbEntity
  8
0
  6
ByLayer
 62
  256
370
   -1
100
AcDbCircle
 10
209.3394898856644
 20
60.25
 40
0.9000000000000341
100
AcDbArc
 50
179.9999999999964
 51
359.9999999999973
  0
LINE
  5
1AC
100
AcDbEntity
  8
0
  6
ByLayer
 62
  256
370
   -1
100
AcDbLine
 10
208.4394898856643
 20
60.25
 11
208.4394898856643
 21
79.75000000000011
  0
ARC
  5
1AD
100
AcDbEntity
  8
0
  6
ByLayer
 62
  256
370
   -1
100
AcDbCircle
 10
209.3394898856644
 20
79.75000000000011
 40
0.9000000000000341
100
AcDbArc
 50
0
 51
180
  0
LINE
  5
1AE
100
AcDbEntity
  8
0
  6
ByLayer
 62
  256
370
   -1
100
AcDbLine
 10
210.2394898856644
 20
79.75000000000011
 11
210.2394898856644
 21
60.24999999999989
  0
LINE
  5
1AF
100
AcDbEntity
  8
0
  6
ByLayer
 62
  256
370
   -1
100
AcDbLine
 10
225.3394898856643
 20
55
 11
163
 21
55
  0
LINE
  5
1B0
100
AcDbEntity
  8
0
  6
ByLayer
 62
  256
370
   -1
100
AcDbLine
 10
163
 20
85.00000000000011
 11
225.3394898856643
 21
85.00000000000011
  0
CIRCLE
  5
1B1
100
AcDbEntity
  8
0
  6
CONTINUOUS
 62
  256
370
   -1
100
AcDbCircle
 10
60.2
 20
74
 40
0.7999999999999921
  0
CIRCLE
  5
1B2
100
AcDbEntity
  8
0
  6
CONTINUOUS
 62
  256
370
   -1
100
AcDbCircle
 10
60.2
 20
62.59999999999997
 40
0.8000000000181616
  0
LINE
  5
1B3
100
AcDbEntity
  8
0
  6
CONTINUOUS
 62
  256
370
   -1
100
AcDbLine
 10
59.4001004025469
 20
73.98732585330555
 11
58.42770783752398
 21
73.97191861213054
  0
LINE
  5
1B4
100
AcDbEntity
  8
0
  6
CONTINUOUS
 62
  256
370
   -1
100
AcDbLine
 10
56.9514718625761
 20
72.47210686690607
 11
56.9514718625761
 21
64.12789313309389
  0
ARC
  5
1B5
100
AcDbEntity
  8
0
  6
CONTINUOUS
 62
  256
370
   -1
100
AcDbCircle
 10
58.4514718625761
 20
72.47210686690607
 40
1.5
100
AcDbArc
 50
90.90775686893056
 51
180
  0
LINE
  5
1B6
100
AcDbEntity
  8
0
  6
CONTINUOUS
 62
  256
370
   -1
100
AcDbLine
 10
58.42770783752398
 20
62.62808138786943
 11
59.40010040252879
 21
62.6126741466947
  0
ARC
  5
1B7
100
AcDbEntity
  8
0
  6
CONTINUOUS
 62
  256
370
   -1
100
AcDbCircle
 10
58.4514718625761
 20
64.12789313309389
 40
1.5
100
AcDbArc
 50
180
 51
269.0922431310694
  0
ENDSEC
  0
SECTION
  2
OBJECTS
  0
DICTIONARY
  5
C
330
0
100
AcDbDictionary
281
    1
  3
ACAD_GROUP
350
D
  0
DICTIONARY
  5
D
330
C
100
AcDbDictionary
281
    1
  0
ENDSEC
  0
EOF
